<svg xmlns="http://www.w3.org/2000/svg" width="34.936" height="34.936" viewBox="0 0 34.936 34.936">
  <g id="Group_4632" data-name="Group 4632" transform="translate(0 0)">
    <path id="Path_18189" data-name="Path 18189" d="M165.821,184.255a2.911,2.911,0,1,1-2.911-2.911A2.911,2.911,0,0,1,165.821,184.255Zm0,0" transform="translate(-155.633 -174.064)" fill="#1c6836"/>
    <g id="Group_68237" data-name="Group 68237">
      <path id="Path_18190" data-name="Path 18190" d="M141.828,153.475a11.659,11.659,0,0,1,9.461-11.433v-9.675A4.371,4.371,0,0,0,146.922,128H132.367A4.371,4.371,0,0,0,128,132.367v20.379a4.371,4.371,0,0,0,4.367,4.367H142.42a11.53,11.53,0,0,1-.592-3.638Zm-6.928-7.745a2.622,2.622,0,0,0-3.611,0l-.378.377V132.367a1.458,1.458,0,0,1,1.456-1.456h14.558a1.458,1.458,0,0,1,1.456,1.456v9.374l-1.107-1.107a2.557,2.557,0,0,0-3.611,0l-6.929,6.931Zm0,0" transform="translate(-128 -128)" fill="#1c6836"/>
      <path id="Path_18191" data-name="Path 18191" d="M254.805,245.328a9.462,9.462,0,1,0,9.461,9.463A9.473,9.473,0,0,0,254.805,245.328Zm4,10.918h-2.548v2.548a1.455,1.455,0,1,1-2.911,0v-2.548H250.8a1.455,1.455,0,1,1,0-2.911h2.548v-2.548a1.456,1.456,0,0,1,2.913,0v2.548h2.546a1.455,1.455,0,1,1,0,2.911Zm0,0" transform="translate(-229.33 -229.316)" fill="#1c6836"/>
    </g>
  </g>
</svg>
