<svg xmlns="http://www.w3.org/2000/svg" width="24.956" height="26.023" viewBox="0 0 24.956 26.023">
  <g id="Group_67212" data-name="Group 67212" transform="translate(20.121 -108.027) rotate(20)">
    <path id="Path_32266" data-name="Path 32266" d="M10.972,5.324a2.324,2.324,0,0,1,4.648,0A8.133,8.133,0,0,1,20.267,12.3v3.486a4.648,4.648,0,0,0,2.324,3.486H4a4.648,4.648,0,0,0,2.324-3.486V12.3a8.133,8.133,0,0,1,4.648-6.972" transform="translate(20.5 104.065)" fill="none" stroke="#fff" stroke-linecap="round" stroke-linejoin="round" stroke-width="1.5"/>
    <path id="Path_32267" data-name="Path 32267" d="M9,17v1.162a3.486,3.486,0,1,0,6.972,0V17" transform="translate(21.532 106.332)" fill="none" stroke="#fff" stroke-linecap="round" stroke-linejoin="round" stroke-width="1.5"/>
  </g>
</svg>
