<svg id="Group_67668" data-name="Group 67668" xmlns="http://www.w3.org/2000/svg" width="28" height="28" viewBox="0 0 28 28">
  <path id="Path_32732" data-name="Path 32732" d="M0,0H28V28H0Z" fill="none"/>
  <path id="Path_32733" data-name="Path 32733" d="M11,5.333a2.333,2.333,0,1,1,4.667,0,8.167,8.167,0,0,1,4.667,7v3.5a4.667,4.667,0,0,0,2.333,3.5H4a4.667,4.667,0,0,0,2.333-3.5v-3.5a8.167,8.167,0,0,1,4.667-7" transform="translate(0.667 0.5)" fill="none" stroke="#000" stroke-linecap="round" stroke-linejoin="round" stroke-width="1.5"/>
  <path id="Path_32734" data-name="Path 32734" d="M9,17v1.167a3.5,3.5,0,0,0,7,0V17" transform="translate(1.5 2.833)" fill="none" stroke="#000" stroke-linecap="round" stroke-linejoin="round" stroke-width="1.5"/>
</svg>
