<svg xmlns="http://www.w3.org/2000/svg" width="410" height="370" viewBox="0 0 410 370">
  <g id="Group_67898" data-name="Group 67898" transform="translate(-235 -404)">
    <circle id="Ellipse_3172" data-name="Ellipse 3172" cx="185" cy="185" r="185" transform="translate(275 404)" fill="#edf4ea"/>
    <g id="Group_67776" data-name="Group 67776" transform="translate(168 320.848)">
      <ellipse id="Ellipse_676" data-name="Ellipse 676" cx="191" cy="18.942" rx="191" ry="18.942" transform="translate(67 365.893)" fill="#60aa3e" opacity="0.231"/>
      <g id="Group_67775" data-name="Group 67775" transform="translate(89.314 131.527)">
        <g id="Group_11" data-name="Group 11" transform="translate(160.755 54.13)">
          <ellipse id="Ellipse_1" data-name="Ellipse 1" cx="8.523" cy="13.857" rx="8.523" ry="13.857" transform="translate(0 32.805)" fill="#60aa3e"/>
          <path id="Path_5" data-name="Path 5" d="M528.569,293.127a10.351,10.351,0,0,1-5.61.466c-4.893-.573-9.833-1.747-13.951-4.451s-7.316-7.149-7.549-12.07c-.158-3.341,1.017-6.576,1.787-9.831a41.508,41.508,0,0,0,.817-14.481" transform="translate(-492.894 -214.07)" fill="#0b0042"/>
          <path id="Path_6" data-name="Path 6" d="M544.6,274.354a18.4,18.4,0,0,0,7.045,23.6,2.4,2.4,0,0,1,1.166,1.121c.246.735-.309,1.48-.855,2.03a20.587,20.587,0,0,1-9.068,5.3c-5.109,1.411-10.539.793-15.779-.008-4.058-.619-8.474-1.555-11.027-4.77a18.633,18.633,0,0,0,3.849-20.26" transform="translate(-490.265 -210.191)" fill="#ffc3c5"/>
          <path id="Path_7" data-name="Path 7" d="M544.885,270.668c-2.1,4.921-1.39,6.044-4.8,9.751-.738.8-3.081,3.63-4.172,4.662a28.708,28.708,0,0,1-4.877,3.023,16.672,16.672,0,0,1-5.122,1.792c-2.28.26-3.364.377-5.112-.836,0,0-.242-4.656-1.187-6.149" transform="translate(-489.629 -210.853)" fill="#ff9798"/>
          <path id="Path_8" data-name="Path 8" d="M499.443,248.837c1.846,6.56-2.462,13.1-3.842,19.775-1.477,7.141.856,15.228,6.664,19.637a20.817,20.817,0,0,1-.646-14.744c1.134-3.39,3.141-6.466,3.988-9.938.908-3.722.42-7.624-.073-11.424" transform="translate(-494.021 -214.774)" fill="#0b0042"/>
          <path id="Path_9" data-name="Path 9" d="M519.64,223.665c10.138-7,28.159-3.463,36.141,5.445,6.171,6.889,8.884,16.153,13.824,23.972a40.837,40.837,0,0,1,5.339,12.748c1.59,8.188-.088,16.6-7.684,20.927,4.576-7.519,1.815-16.035-4.651-19.246" transform="translate(-489.625 -219.961)" fill="#0b0042"/>
          <path id="Path_10" data-name="Path 10" d="M512.555,238.495c-3.513,2.543-7.232,7.435-7.939,11.714s2.352,8.3,3.032,12.275c.988,5.787-.3,10.808,2.19,16.126a29.667,29.667,0,0,0,6.257,8.411c2.221,1.879,3.889,3.921,6.748,4.46,2.248.423,3.743-.232,5.959-.8,5.034-1.28,12.6-4.982,17.07-9.415,4.994-4.946,6.7-7.15,8.334-13.987a45.016,45.016,0,0,0-.434-20.89" transform="translate(-492.343 -216.632)" fill="#ffc7c9"/>
          <path id="Path_11" data-name="Path 11" d="M504.957,257.845a34.056,34.056,0,0,1,7.75-11.268,4.173,4.173,0,0,1,1.533-1.062c2.139-.69,3.758,1.828,5.14,3.6,3.7,4.756,13.845,9.022,19.83,8.3a112.332,112.332,0,0,1,18.014-.9c-3.9-9.193-14.4-21.892-23.156-26.693-3.534-1.938-7.525-3.423-11.525-2.929-6.025.746-10.568,5.683-14.31,10.464-1.877,2.4-3.8,5.223-3.286,8.224" transform="translate(-492.28 -218.733)" fill="#ff9798"/>
          <path id="Path_12" data-name="Path 12" d="M517.733,232.842c-.6,7.9-8.325,12.4-9.805,20.183a28.489,28.489,0,0,0-.059,7.83c.383,3.131,2.048,6.976,3.444,9.8-3.974-.624-8.888-5.335-10.415-9.057a27.989,27.989,0,0,1-.159-21.275c2.838-6.7,8.6-17.772,23.8-17.262" transform="translate(-493.384 -219.406)" fill="#0b0042"/>
          <path id="Path_13" data-name="Path 13" d="M506.314,234.593c7.287,3.246,10.039,12.363,16.545,16.977a25.84,25.84,0,0,0,12.661,5.111A31.131,31.131,0,0,0,544,255.5c-2.844-2.672-7.06-6.206-7.106-10.107a30.07,30.07,0,0,0,19.926,11.862l-7.382-19.162a38.067,38.067,0,0,0-2.031-4.645c-3.288-6-9.82-9.9-16.617-10.7a29.572,29.572,0,0,0-19.461,5.071c-2.555,1.689-5,3.873-5.9,6.8" transform="translate(-492.179 -219.491)" fill="#0b0042"/>
          <path id="Path_14" data-name="Path 14" d="M554.816,238.214a39.265,39.265,0,0,0-3.094-4.859A23.5,23.5,0,0,0,544.5,227a20.893,20.893,0,0,0-14.224-2.161l9.356,21.118c.28.849.59,1.736.91,2.639l-3.591,1.063s6.016,4.191,6.016,16.754c0,9.838-2.914,13.976-3.822,19.187a13.325,13.325,0,0,0-.2,4.695v.019l0,.015c.175,1.574.5,3.245.744,5.221a1.625,1.625,0,0,0,2.345,1.7,43.224,43.224,0,0,0,11.809-3.864c3.66-1.97,7.781-5.11,9.36-8.956a25.2,25.2,0,0,0,1.786-8.1C565.632,263.007,561.268,249.884,554.816,238.214Z" transform="translate(-487.714 -219.161)" fill="#0b0042"/>
          <g id="Group_5" data-name="Group 5" transform="translate(9.356 33.399)">
            <path id="Path_15" data-name="Path 15" d="M516.191,256.926a28,28,0,0,1-2.1,8.71.989.989,0,0,0,.046.8.769.769,0,0,0,.468.35,10.557,10.557,0,0,0,4.228.652,35.085,35.085,0,0,0-2.645-10.513" transform="translate(-499.989 -246.72)" fill="#ff9798"/>
            <g id="Group_3" data-name="Group 3" transform="translate(0 2.914)">
              <path id="Path_16" data-name="Path 16" d="M514.531,250.85a20.591,20.591,0,0,0-7.684.633,9.955,9.955,0,0,0-2.83,1.287,5.47,5.47,0,0,0-1.836,2.5c-.331.788.956,1.132,1.282.354a3.824,3.824,0,0,1,1.545-1.911,10.055,10.055,0,0,1,2.627-1.065,20.448,20.448,0,0,1,6.895-.465c.852.079.847-1.25,0-1.331Z" transform="translate(-502.127 -250.745)" fill="#0b0042"/>
            </g>
            <ellipse id="Ellipse_2" data-name="Ellipse 2" cx="1.37" cy="1.745" rx="1.37" ry="1.745" transform="translate(8.51 8.964)" fill="#0b0042"/>
            <ellipse id="Ellipse_3" data-name="Ellipse 3" cx="1.37" cy="1.745" rx="1.37" ry="1.745" transform="translate(27.794 7.245)" fill="#0b0042"/>
            <path id="Path_17" data-name="Path 17" d="M513.132,270.56l16.325-1.89s-3.88,6.7-8.391,7.323C514.96,276.841,513.132,270.56,513.132,270.56Z" transform="translate(-500.15 -244.61)" fill="#fff"/>
            <circle id="Ellipse_4" data-name="Ellipse 4" cx="4.004" cy="4.004" r="4.004" transform="translate(30.848 14.125)" fill="#ff9798"/>
            <ellipse id="Ellipse_5" data-name="Ellipse 5" cx="2.365" cy="4.004" rx="2.365" ry="4.004" transform="matrix(0.986, -0.168, 0.168, 0.986, 5.882, 18.203)" fill="#ff9798"/>
            <g id="Group_4" data-name="Group 4" transform="translate(23.742)">
              <path id="Path_18" data-name="Path 18" d="M523.054,251.058a20.465,20.465,0,0,1,6.782-1.451,10.133,10.133,0,0,1,2.75.29,4.027,4.027,0,0,1,2.16,1.55c.536.668,1.472-.28.94-.94a5.226,5.226,0,0,0-2.421-1.8,10.2,10.2,0,0,0-3.112-.436,20.839,20.839,0,0,0-7.452,1.5c-.789.308-.446,1.594.353,1.282Z" transform="translate(-522.254 -248.274)" fill="#0b0042"/>
            </g>
          </g>
          <g id="Group_10" data-name="Group 10" transform="translate(8.522 5.067)">
            <g id="Group_7" data-name="Group 7">
              <ellipse id="Ellipse_6" data-name="Ellipse 6" cx="10.749" cy="13.857" rx="10.749" ry="13.857" transform="translate(40.684 27.738)" fill="#60aa3e"/>
              <g id="Group_6" data-name="Group 6">
                <path id="Path_19" data-name="Path 19" d="M554.086,253.215a43.077,43.077,0,0,0-2.4-8.894c-2.128-5.7-5.311-11.281-10.14-15.107a22.24,22.24,0,0,0-9.395-4.448,27.046,27.046,0,0,0-12.229.42,22.918,22.918,0,0,0-14.537,12.567,45.174,45.174,0,0,0-3.836,14.328c-.04.34-.079.678-.119,1.018a1.182,1.182,0,0,0,1.174,1.174,1.2,1.2,0,0,0,1.174-1.174c.04-.34.079-.678.119-1.018.021-.179.044-.36.066-.539.013-.1.027-.2.04-.306.044-.34-.026.178.022-.17.14-.992.3-1.981.488-2.963a41.029,41.029,0,0,1,2.109-7.374c2.121-5.335,6-10.286,11.6-12.509,6.559-2.6,14.518-2.175,20.439,1.774,4.808,3.206,8.168,8.53,10.259,13.67a50.072,50.072,0,0,1,2.143,6.547c.291,1.149.478,2.314.736,3.468.012.053.017.108.025.162a1.181,1.181,0,0,0,1.444.82,1.2,1.2,0,0,0,.82-1.444Z" transform="translate(-501.42 -224.257)" fill="#60aa3e"/>
              </g>
              <ellipse id="Ellipse_7" data-name="Ellipse 7" cx="8.598" cy="11.083" rx="8.598" ry="11.083" transform="translate(44.047 29.702)" fill="#1c6836"/>
            </g>
            <g id="Group_9" data-name="Group 9" transform="translate(23.499 48.053)">
              <g id="Group_8" data-name="Group 8" transform="translate(3.928)">
                <path id="Path_20" data-name="Path 20" d="M547.761,265.171a67.229,67.229,0,0,1-14.38,9.61,69,69,0,0,1-8.257,3.6c-.8.288-.454,1.574.354,1.282a75.008,75.008,0,0,0,21.866-12.406c.46-.374.919-.753,1.358-1.151.635-.576-.308-1.515-.94-.94Z" transform="translate(-524.671 -264.992)" fill="#0b0042"/>
              </g>
              <ellipse id="Ellipse_8" data-name="Ellipse 8" cx="3.031" cy="1.786" rx="3.031" ry="1.786" transform="translate(0 14.079) rotate(-20.024)" fill="#0b0042"/>
            </g>
          </g>
        </g>
        <g id="Group_13" data-name="Group 13" transform="translate(287.692 46.139)">
          <circle id="Ellipse_9" data-name="Ellipse 9" cx="26.22" cy="26.22" r="26.22" transform="translate(0)" fill="#60aa3e" opacity="0.17"/>
          <path id="Path_22" data-name="Path 22" d="M624.089,254.421a11.283,11.283,0,0,0,7.224-5.287,10.126,10.126,0,0,0,.663-1.372c1.668-3.211,1.53-8.539,1.407-10.318a20.332,20.332,0,0,0-2.668-10.358,6.145,6.145,0,0,0-.88-1.418c-2.862-3.088-4.946-3.915-8.154-4.3-1.487-.177-2.929.615-2.858,1.559l.688,9.259c.068.931,1.58,1.495,3.008,1.116a17.092,17.092,0,0,0,4.235-1.69,18.161,18.161,0,0,1,1.149,6.178l0,.066a26.979,26.979,0,0,1-.221,5.709,17.183,17.183,0,0,0-4.434-1.078c-1.487-.178-2.929.613-2.858,1.558l.688,9.26C621.15,254.236,622.66,254.8,624.089,254.421Z" transform="translate(-598.747 -211.722)" fill="#1c6836"/>
        </g>
        <g id="Group_14" data-name="Group 14" transform="translate(180.552)">
          <circle id="Ellipse_10" data-name="Ellipse 10" cx="18.928" cy="18.928" r="18.928" fill="#60aa3e" opacity="0.26"/>
          <path id="Path_23" data-name="Path 23" d="M535.729,188.438a7.563,7.563,0,1,0-15.107,0,8.247,8.247,0,0,0,.452,2.682h-.008l.038.085a8.059,8.059,0,0,0,.555,1.228l6.783,10.755,6.57-11.373H535A8.208,8.208,0,0,0,535.729,188.438Zm-7.331,3.409a3.631,3.631,0,1,1,3.631-3.631A3.632,3.632,0,0,1,528.4,191.847Z" transform="translate(-509.246 -172.919)" fill="#1c6836"/>
        </g>
        <g id="Group_16" data-name="Group 16" transform="translate(79.935 32.874)">
          <path id="Path_24" data-name="Path 24" d="M461.36,234.5a20.016,20.016,0,1,0-8.438,6.18l-.008.006,9.966,3.77-1.509-9.963Z" transform="translate(-425.682 -201.942)" fill="#60aa3e" opacity="0.43"/>
          <g id="Group_15" data-name="Group 15" transform="translate(10.829 19.223)">
            <circle id="Ellipse_11" data-name="Ellipse 11" cx="1.634" cy="1.634" r="1.634" fill="#fff"/>
            <circle id="Ellipse_12" data-name="Ellipse 12" cx="1.634" cy="1.634" r="1.634" transform="translate(7.175)" fill="#fff"/>
            <circle id="Ellipse_13" data-name="Ellipse 13" cx="1.634" cy="1.634" r="1.634" transform="translate(14.351)" fill="#fff"/>
          </g>
        </g>
        <circle id="Ellipse_14" data-name="Ellipse 14" cx="1.949" cy="1.949" r="1.949" transform="translate(127.952 139.435)" fill="#60aa3e" opacity="0.546"/>
        <circle id="Ellipse_15" data-name="Ellipse 15" cx="2.19" cy="2.19" r="2.19" transform="translate(117.485 123.232)" fill="#60aa3e" opacity="0.546"/>
        <g id="Group_37" data-name="Group 37" transform="translate(99.556 132.276)">
          <g id="Group_33" data-name="Group 33" transform="translate(9.745 0)">
            <g id="Group_17" data-name="Group 17" transform="translate(168.348 71.468)">
              <path id="Path_25" data-name="Path 25" d="M593.289,386.073c4.652-9.091,11.083-17.657,20.035-22.571,8.428-4.625,18.374-5.656,27.154-9.575a44.537,44.537,0,0,0,11.15-7.134c-1.279,8.189-2.617,16.556-6.523,23.866-2.885,5.4-7.14,10.154-8.831,16.041" transform="translate(-593.289 -346.793)" fill="#1c6836"/>
              <path id="Path_26" data-name="Path 26" d="M646.417,349.689a70.628,70.628,0,0,1-12.025,14.63c-4.334,4-9.077,7.513-13.547,11.347a78.617,78.617,0,0,0-1.293-12.168c-.113-.611-1.044-.351-.931.257a76.955,76.955,0,0,1,1.276,12.361.425.425,0,0,0,.12.263c-.42.368-.854.718-1.267,1.093a35.744,35.744,0,0,0-7.1,8.5.484.484,0,0,0,.835.487c3.448-5.991,9.044-10.172,14.344-14.42,1.256-1.007,2.509-2.027,3.747-3.066a.43.43,0,0,0,.243.051q4.6-.9,9.26-1.375c.612-.063.618-1.03,0-.966-2.762.283-5.508.694-8.239,1.19a81.288,81.288,0,0,0,9.11-8.949,73.863,73.863,0,0,0,6.3-8.753C647.582,349.647,646.747,349.161,646.417,349.689Z" transform="translate(-590.003 -346.314)" fill="#fff" opacity="0.33"/>
            </g>
            <g id="Group_18" data-name="Group 18" transform="translate(33.567)">
              <path id="Path_27" data-name="Path 27" d="M521.687,344.312c-.952-10.167-3.75-20.505-10.244-28.388-6.113-7.42-14.968-12.063-21.671-18.957a44.512,44.512,0,0,1-7.711-10.759c-1.847,8.08-3.706,16.347-2.786,24.585.68,6.086,2.869,12.078,2.258,18.171" transform="translate(-479.032 -286.208)" fill="#1c6836"/>
              <path id="Path_28" data-name="Path 28" d="M482.213,289.53a70.648,70.648,0,0,0,5.748,18.045c2.541,5.324,5.646,10.342,8.377,15.559a78.67,78.67,0,0,1,5.709-10.822c.331-.525,1.1.06.77.584A76.94,76.94,0,0,0,497.05,323.9a.418.418,0,0,1-.209.2c.254.5.526.984.771,1.486a35.763,35.763,0,0,1,3.443,10.529.483.483,0,0,1-.956.143c-.982-6.842-4.631-12.8-7.979-18.709-.794-1.4-1.58-2.812-2.345-4.236a.428.428,0,0,1-.243-.044q-3.939-2.536-8.091-4.709c-.545-.284-.193-1.186.359-.9,2.46,1.286,4.858,2.685,7.209,4.158a81.433,81.433,0,0,1-5.143-11.688,74.071,74.071,0,0,1-2.609-10.465A.483.483,0,0,1,482.213,289.53Z" transform="translate(-478.648 -285.682)" fill="#fff" opacity="0.33"/>
            </g>
            <g id="Group_25" data-name="Group 25" transform="translate(125.703 6.495)">
              <path id="Path_29" data-name="Path 29" d="M557.138,396.471a76.927,76.927,0,0,1,21.25-43.951c8.481-8.641,18.932-15.179,27.262-23.965a71.627,71.627,0,0,0,18.479-36.841,91.725,91.725,0,0,1,1.87,73.5c-4.437,10.705-10.951,20.626-13.707,31.881" transform="translate(-557.138 -291.714)" fill="#60aa3e"/>
              <g id="Group_24" data-name="Group 24" transform="translate(19.747 2.613)" opacity="0.31">
                <g id="Group_19" data-name="Group 19" transform="translate(20.163 45.327)">
                  <path id="Path_30" data-name="Path 30" d="M591.235,332.817c-.669,7.683.09,15.445.521,23.123.034.618,1,.622.966,0-.432-7.678-1.191-15.44-.521-23.123.053-.619-.913-.616-.966,0Z" transform="translate(-590.971 -332.353)" fill="#fff"/>
                </g>
                <g id="Group_20" data-name="Group 20" transform="translate(29.493 48.135)">
                  <path id="Path_31" data-name="Path 31" d="M599.62,343.362l18.008-7.75c.569-.244.078-1.077-.488-.834l-18.007,7.75c-.57.244-.078,1.077.487.834Z" transform="translate(-598.879 -334.734)" fill="#fff"/>
                </g>
                <g id="Group_21" data-name="Group 21" transform="translate(11.156 74.751)">
                  <path id="Path_32" data-name="Path 32" d="M584.076,365.925l18.007-7.75c.57-.244.078-1.077-.487-.834l-18.008,7.75c-.569.244-.078,1.077.488.834Z" transform="translate(-583.335 -357.297)" fill="#fff"/>
                </g>
                <g id="Group_22" data-name="Group 22" transform="translate(0.849 66.244)">
                  <path id="Path_33" data-name="Path 33" d="M574.6,350.545a116.617,116.617,0,0,0,5.428,23.227c.2.584,1.135.334.932-.257a115.344,115.344,0,0,1-5.393-22.97c-.079-.609-1.045-.616-.966,0Z" transform="translate(-574.597 -350.086)" fill="#fff"/>
                </g>
                <g id="Group_23" data-name="Group 23">
                  <path id="Path_34" data-name="Path 34" d="M574.838,396.857c4.815-13.888,14.954-24.868,23.14-36.794a169.2,169.2,0,0,0,11.534-20.5,174.754,174.754,0,0,0,9.161-20.594,63.536,63.536,0,0,0,3.684-24.575c-.035-.618-1-.622-.965,0a61.521,61.521,0,0,1-3.007,22.389,149.334,149.334,0,0,1-8.933,20.739c-3.515,7.074-7,14.15-11.408,20.726-3.991,5.96-8.456,11.578-12.619,17.416-4.642,6.509-8.887,13.346-11.519,20.936-.2.589.729.842.932.257Z" transform="translate(-573.878 -293.929)" fill="#fff"/>
                </g>
              </g>
            </g>
            <g id="Group_32" data-name="Group 32" transform="translate(0 6.495)">
              <path id="Path_35" data-name="Path 35" d="M526.22,396.471a76.936,76.936,0,0,0-21.251-43.951c-8.481-8.641-18.932-15.179-27.262-23.965a71.624,71.624,0,0,1-18.478-36.841,91.714,91.714,0,0,0-1.87,73.5c4.437,10.705,10.95,20.626,13.706,31.881" transform="translate(-450.576 -291.714)" fill="#60aa3e"/>
              <g id="Group_31" data-name="Group 31" transform="translate(7.32 2.613)" opacity="0.31">
                <g id="Group_26" data-name="Group 26" transform="translate(26.66 45.327)">
                  <path id="Path_36" data-name="Path 36" d="M480.871,332.817c.669,7.683-.091,15.445-.523,23.123-.034.618-1,.622-.965,0,.432-7.678,1.19-15.44.521-23.123-.054-.619.912-.616.966,0Z" transform="translate(-479.382 -332.353)" fill="#fff"/>
                </g>
                <g id="Group_27" data-name="Group 27" transform="translate(0.082 48.135)">
                  <path id="Path_37" data-name="Path 37" d="M475.112,343.362l-18.007-7.75c-.57-.244-.078-1.077.487-.834l18.007,7.75c.57.244.079,1.077-.487.834Z" transform="translate(-456.851 -334.734)" fill="#fff"/>
                </g>
                <g id="Group_28" data-name="Group 28" transform="translate(18.418 74.751)">
                  <path id="Path_38" data-name="Path 38" d="M490.657,365.925l-18.008-7.75c-.57-.244-.078-1.077.487-.834l18.008,7.75c.57.244.078,1.077-.487.834Z" transform="translate(-472.395 -357.297)" fill="#fff"/>
                </g>
                <g id="Group_29" data-name="Group 29" transform="translate(41.335 66.244)">
                  <path id="Path_39" data-name="Path 39" d="M498.211,350.545a116.712,116.712,0,0,1-5.429,23.227c-.2.584-1.135.334-.931-.257a115.513,115.513,0,0,0,5.393-22.97c.078-.609,1.045-.616.966,0Z" transform="translate(-491.822 -350.086)" fill="#fff"/>
                </g>
                <g id="Group_30" data-name="Group 30">
                  <path id="Path_40" data-name="Path 40" d="M504.4,396.857c-4.814-13.888-14.954-24.868-23.14-36.794a169.348,169.348,0,0,1-11.534-20.5,174.97,174.97,0,0,1-9.161-20.594,63.562,63.562,0,0,1-3.684-24.575c.037-.618,1-.622.966,0a61.471,61.471,0,0,0,3.007,22.389,149.071,149.071,0,0,0,8.933,20.739c3.514,7.074,7,14.15,11.407,20.726,3.991,5.96,8.457,11.578,12.618,17.416,4.642,6.509,8.887,13.346,11.519,20.936.2.589-.729.842-.932.257Z" transform="translate(-456.782 -293.929)" fill="#fff"/>
                </g>
              </g>
            </g>
          </g>
          <g id="Group_34" data-name="Group 34" transform="translate(0 6.394)">
            <circle id="Ellipse_16" data-name="Ellipse 16" cx="0.898" cy="0.898" r="0.898" fill="#60aa3e" opacity="0.45"/>
          </g>
          <g id="Group_35" data-name="Group 35" transform="translate(225.49 63.965)">
            <circle id="Ellipse_19" data-name="Ellipse 19" cx="0.898" cy="0.898" r="0.898" transform="translate(9.028 42.401)" fill="#60aa3e" opacity="0.48"/>
            <circle id="Ellipse_20" data-name="Ellipse 20" cx="1.949" cy="1.949" r="1.949" transform="translate(13.825 25.507)" fill="#60aa3e" opacity="0.48"/>
            <circle id="Ellipse_21" data-name="Ellipse 21" cx="1.949" cy="1.949" r="1.949" fill="#60aa3e" opacity="0.48"/>
          </g>
          <g id="Group_36" data-name="Group 36" transform="translate(168.404 1.172)">
            <circle id="Ellipse_22" data-name="Ellipse 22" cx="0.898" cy="0.898" r="0.898" transform="translate(0 24.915)" fill="#60aa3e" opacity="0.48"/>
            <circle id="Ellipse_23" data-name="Ellipse 23" cx="1.949" cy="1.949" r="1.949" transform="translate(20.677 3.901)" fill="#60aa3e" opacity="0.48"/>
            <circle id="Ellipse_24" data-name="Ellipse 24" cx="2.19" cy="2.19" r="2.19" transform="translate(1.837)" fill="#60aa3e" opacity="0.48"/>
          </g>
        </g>
        <path id="Path_41" data-name="Path 41" d="M429.185,341.566s-27.557-55.015,11.2-105.836" transform="translate(-346.824 -162.999)" fill="none" stroke="#707070" stroke-miterlimit="10" stroke-width="0.5" opacity="0.4"/>
        <path id="Path_42" data-name="Path 42" d="M459.884,215.4s22.749-20.294,60.769-21.633" transform="translate(-339.604 -170.537)" fill="none" stroke="#707070" stroke-miterlimit="10" stroke-width="0.5" opacity="0.4"/>
        <path id="Path_43" data-name="Path 43" d="M544.7,191.953S587.966,189.8,621.074,222" transform="translate(-324.369 -170.868)" fill="none" stroke="#707070" stroke-miterlimit="10" stroke-width="0.5" opacity="0.4"/>
        <path id="Path_44" data-name="Path 44" d="M642.385,254.354S675.4,315.519,618.56,361.389" transform="translate(-311.101 -159.654)" fill="none" stroke="#707070" stroke-miterlimit="10" stroke-width="0.5" opacity="0.4"/>
        <g id="Group_38" data-name="Group 38" transform="translate(81.243 136.739)">
          <path id="Path_45" data-name="Path 45" d="M546.963,289.991c-5.413,4.454-10.741,6.26-18.383,5.787-3.4-.211-5.431-.924-7.769-2.957-2.962,2.727-5.445,6.379-6.13,9.989-2.181,11.494-2.309,23.176-2.431,34.807l-.584,55.611a.683.683,0,0,0,.119.481,1.067,1.067,0,0,0,.625.25,117.279,117.279,0,0,0,26.473,1.5c3.988-.226,8.129-.639,11.88.5-.54-4.986,1.009-9.943,2.382-14.82,3.015-10.7,5.248-21.645,4.807-32.625-.149-3.671-.595-7.331-.738-11-.244-6.182.368-12.368.284-18.554a83.212,83.212,0,0,0-2.051-17.241c-1.038-4.589-5-8.027-8.483-11.72" transform="translate(-411.546 -289.991)" fill="#fff"/>
          <path id="Path_46" data-name="Path 46" d="M523.818,292.39c-.264,8.039-1.089,15.261-1.168,24.483-.036,4.25-.251,7.5-.242,11.747.006,2.92-.214,5.836-.433,8.749l-4.156,55.193a1.475,1.475,0,0,1-.308.953,2.422,2.422,0,0,1-1.815.415l-20.773-.763,1.708-14.879a81.832,81.832,0,0,0,.794-15.15c-.36-5.037-1.654-10.015-1.765-15.059a64.766,64.766,0,0,1,.816-9.988l1.89-14.1c1.125-8.4,2.5-17.322,9.009-23.878a50.457,50.457,0,0,1,6.151-4.995c2.808-2.047,6.568-2.34,10.292-2.725" transform="translate(-414.553 -289.56)" fill="#0b4a21"/>
          <path id="Path_47" data-name="Path 47" d="M530.363,293.3c-3.362,0-6.528,1.916-10.5,3.305-4.277,1.5-7.021,4.283-10.121,7.237-2.729,2.6-8.939,11.077-11.385,13.946-6.957,8.162-13.692,17.618-19.94,26.334-4.809,6.711-8.349,8.065-14.849,13.155-4.514,3.535-9.8,5.916-14.886,8.565a147.127,147.127,0,0,0-20.351,12.821,2.881,2.881,0,0,0-1.447,3.462l1,7.165a2.148,2.148,0,0,0,.418,1.188,2.113,2.113,0,0,0,1.385.511,83.494,83.494,0,0,0,13.524.13,78.489,78.489,0,0,0,13.494-1.63,92.577,92.577,0,0,0,12.827-4.322c6.294-2.469,12.634-4.96,18.34-8.589,10.79-6.861,18.7-17.376,25.75-28.041a43.805,43.805,0,0,0,3.579-6.16,46.322,46.322,0,0,0,2.505-8.154q1.938-8.06,3.829-16.131" transform="translate(-426.791 -289.397)" fill="#032c11"/>
          <path id="Path_48" data-name="Path 48" d="M542.955,289.991a323.294,323.294,0,0,1-.649,32.808c-2.395,27.778-2.744,44.14-8.232,71.477a1.778,1.778,0,0,0,.334,1.83,2.832,2.832,0,0,0,1.731.4l23.713.4a2.889,2.889,0,0,0,1.392-.208,1.961,1.961,0,0,0,.821-1.134c3.167-8.3,3.672-17.122,3.949-25.826q.551-17.312.026-34.63c-.335-11.112-.971-22.45,2.77-33.125.55-1.569,1.785-3.041.662-4.383a9.768,9.768,0,0,0-3.082-1.838c-6.333-2.626-16.607-4.2-23.435-5.766" transform="translate(-407.538 -289.991)" fill="#032c11"/>
          <path id="Path_49" data-name="Path 49" d="M521.114,292.791s1.04.162,2.064,3.148,4.13,16.926,2.109,30.105-2.518,30.807-1.347,35.024c.928,3.343,4.443,13.062,24.717-.235s1.492,14.058,1.492,14.058L513.983,384.2s-7.435-29.871-6.806-30.925" transform="translate(-412.359 -289.488)" fill="#0b4a21" opacity="0.18"/>
          <path id="Path_50" data-name="Path 50" d="M537.27,366.858s7.239-2.807,14.092-11.652,5.939-15.056,5.939-19.976-.82-32.1,8.551-31.277,1.64,46.388,1.64,46.388L555.31,364.4l-13.6,5.857" transform="translate(-406.946 -287.486)" fill="#0b4a21"/>
          <path id="Path_51" data-name="Path 51" d="M574.763,296.1a49.028,49.028,0,0,0-6.845,16.932c-1.8,8.575-1.092,12.226-1.171,22.094-.044,5.583.938,11.283-.937,18.335-1.452,5.463-5.794,8.056-10.9,10.453s-10.555,3.938-15.859,5.845c-12.643,4.545-24.653,7.85-36.528,14.143-3.66,1.939.365,6.528.317,7.257a2.7,2.7,0,0,0,.506,1.475c2.211,3.794,2.574,3.01,4.652,4.373.749.49,3.082-.608,3.866-.177.75.413,2.836-.079,3.69-.117a79.7,79.7,0,0,0,9.723-.589c15.768-2.76,29.38,1.817,44.131-4.419,4.027-1.7,8.083-3.582,11.262-6.592,4.5-4.264,6.789-10.348,8.456-16.331,6.284-22.562,5.35-48.064-7.144-67.852-1.6-2.528-4.608-4.619-7.221-4.831" transform="translate(-413.464 -288.894)" fill="#032c11"/>
          <path id="Path_52" data-name="Path 52" d="M505.026,372.237s-10.993-1.91-15.562-.944-10.938,2.426-10.807,6.046l26.368.025" transform="translate(-417.475 -275.436)" fill="#ffc7c9"/>
          <path id="Path_53" data-name="Path 53" d="M495.669,379.027s2.351-18.342.9-29.928c0,0,3.382-23.071,5.516-20.81s2.687,11.678,1.6,19.1-3.177,26.263-2.156,32.849" transform="translate(-414.419 -283.14)" fill="#1c6836"/>
        </g>
        <g id="Group_40" data-name="Group 40" transform="translate(0 161.328)">
          <rect id="Rectangle_6" data-name="Rectangle 6" width="192.741" height="5.034" rx="1.625" transform="translate(11.792 77.314)" fill="#747576"/>
          <g id="Group_39" data-name="Group 39" transform="translate(0 0)">
            <path id="Path_54" data-name="Path 54" d="M487.229,393.184H372.17a3.047,3.047,0,0,1-3.029-2.727L361.114,314.2a3.047,3.047,0,0,1,3.03-3.366H480.271a3.046,3.046,0,0,1,3.034,2.77l6.957,76.255A3.047,3.047,0,0,1,487.229,393.184Z" transform="translate(-357.349 -310.836)" fill="#747576"/>
            <path id="Path_55" data-name="Path 55" d="M484.051,393.184H368.993a3.048,3.048,0,0,1-3.03-2.727L357.937,314.2a3.046,3.046,0,0,1,3.029-3.366H477.093a3.048,3.048,0,0,1,3.035,2.77l6.956,76.255A3.047,3.047,0,0,1,484.051,393.184Z" transform="translate(-357.919 -310.836)"/>
            <circle id="Ellipse_25" data-name="Ellipse 25" cx="6.375" cy="6.375" r="6.375" transform="translate(53.703 35.809)" fill="#fff" opacity="0.48"/>
          </g>
        </g>
      </g>
    </g>
  </g>
</svg>
