<svg id="Group_68063" data-name="Group 68063" xmlns="http://www.w3.org/2000/svg" width="52.953" height="52.953" viewBox="0 0 52.953 52.953">
  <g id="Group_68062" data-name="Group 68062">
    <g id="Group_68061" data-name="Group 68061">
      <g id="Group_68059" data-name="Group 68059" transform="translate(3.31)">
        <path id="Path_32891" data-name="Path 32891" d="M237,0a15,15,0,1,0,15,15A15.014,15.014,0,0,0,237,0Z" transform="translate(-202.349)" fill="#fff47d"/>
        <path id="Path_32892" data-name="Path 32892" d="M367,0V29.993A15,15,0,1,0,367,0Z" transform="translate(-332.353)" fill="#ffda44"/>
        <circle id="Ellipse_714" data-name="Ellipse 714" cx="11.813" cy="11.813" r="11.813" transform="translate(23.167 2.852)" fill="#ffda44"/>
        <path id="Path_32893" data-name="Path 32893" d="M367,30V53.788A11.894,11.894,0,1,0,367,30Z" transform="translate(-332.353 -26.897)" fill="#ffc000"/>
        <g id="Group_68058" data-name="Group 68058">
          <path id="Path_32894" data-name="Path 32894" d="M40.791,0a8.791,8.791,0,1,0,8.791,8.791A8.8,8.8,0,0,0,40.791,0Z" transform="translate(-32)" fill="#fff47d"/>
          <path id="Path_32895" data-name="Path 32895" d="M329.512,63.259c-.238-.084-.481-.172-.724-.263V58.877a1.922,1.922,0,0,1,.832.438,1.034,1.034,0,0,0,1.556-1.363,3.984,3.984,0,0,0-2.388-1.186v-.731a1.034,1.034,0,0,0-2.069,0v.851c-.107.026-.215.055-.326.088a3.835,3.835,0,0,0-2.628,3.007,3.39,3.39,0,0,0,1.115,3.34,8.77,8.77,0,0,0,1.839,1.063v5.253a3.62,3.62,0,0,1-1.8-.716,1.034,1.034,0,1,0-1.132,1.731,5.581,5.581,0,0,0,2.934,1.06v.871a1.034,1.034,0,0,0,2.069,0v-.964a4.652,4.652,0,0,0,3.5-3.737A4.039,4.039,0,0,0,329.512,63.259Zm-3.354-1.566a1.368,1.368,0,0,1-.359-1.329,1.844,1.844,0,0,1,.921-1.3v3A4.9,4.9,0,0,1,326.158,61.693Zm4.094,5.845a2.572,2.572,0,0,1-1.463,1.913V65.2l.034.012A2.01,2.01,0,0,1,330.251,67.538Z" transform="translate(-293.189 -49.312)" fill="#fff47d"/>
          <path id="Path_32896" data-name="Path 32896" d="M368.676,63.295c-.238-.084-.481-.172-.724-.263V58.913a1.922,1.922,0,0,1,.832.438,1.034,1.034,0,0,0,1.556-1.363,3.984,3.984,0,0,0-2.388-1.186V56.07A1.034,1.034,0,0,0,367,55.04V73.648a1.034,1.034,0,0,0,.953-1.03v-.964a4.652,4.652,0,0,0,3.5-3.737A4.039,4.039,0,0,0,368.676,63.295Zm.739,4.279a2.572,2.572,0,0,1-1.463,1.913V65.233l.034.012A2.01,2.01,0,0,1,369.416,67.574Z" transform="translate(-332.353 -49.348)" fill="#ffda44"/>
        </g>
        <path id="Path_32897" data-name="Path 32897" d="M117,0V17.582A8.791,8.791,0,0,0,117,0Z" transform="translate(-108.209)" fill="#ffda44"/>
      </g>
      <g id="Group_68060" data-name="Group 68060" transform="translate(0 27.097)">
        <path id="Path_32898" data-name="Path 32898" d="M121.414,343.635l-13.646,6.52a5.171,5.171,0,0,1-3.127.427l-21.92-3.865-.042,8.828,13.669,4.175a22.485,22.485,0,0,0,18.784-2.627l10.141-6.562a3.959,3.959,0,0,0-3.858-6.9Z" transform="translate(-74.127 -334.845)" fill="#ffddce"/>
        <path id="Path_32899" data-name="Path 32899" d="M281.912,345.171a3.96,3.96,0,0,0-5.1-1.536l-13.646,6.52a5.17,5.17,0,0,1-3.127.427L256,349.87v10.711a22.465,22.465,0,0,0,14.527-3.488l10.141-6.562A3.959,3.959,0,0,0,281.912,345.171Z" transform="translate(-229.523 -334.845)" fill="#ffcbbc"/>
        <path id="Path_32900" data-name="Path 32900" d="M185.606,392.444a5.171,5.171,0,0,1-3.127.427l-1.72-.3-9.442-1.665a1.551,1.551,0,0,0-.539,3.056l10.542,1.859a7.494,7.494,0,0,0,8.533-5.4Z" transform="translate(-151.966 -377.134)" fill="#ffcbbc"/>
        <path id="Path_32901" data-name="Path 32901" d="M263.164,392.443a5.171,5.171,0,0,1-3.127.427l-1.72-.3L256,392.158v3.151l2.877.507a7.494,7.494,0,0,0,8.533-5.4Z" transform="translate(-229.523 -377.133)" fill="#ffbca7"/>
        <path id="Path_32902" data-name="Path 32902" d="M99.74,283.206a4.128,4.128,0,0,1-2.1-1.046,11.711,11.711,0,0,0-14.18-1.348l-.727.456v11l10.794-1.228,10.541,1.859a4.4,4.4,0,1,0,1.527-8.657Z" transform="translate(-74.176 -277.268)" fill="#ffddce"/>
        <path id="Path_32903" data-name="Path 32903" d="M260.942,321.839,256,320.968v8.926l3.416.6a4.4,4.4,0,0,0,1.527-8.657Z" transform="translate(-229.523 -314.869)" fill="#ffcbbc"/>
        <path id="Path_32904" data-name="Path 32904" d="M8.791,285.788H1.551A1.551,1.551,0,0,1,0,284.236V263.551A1.551,1.551,0,0,1,1.551,262h7.24a1.551,1.551,0,0,1,1.551,1.551v20.685A1.551,1.551,0,0,1,8.791,285.788Z" transform="translate(0 -262)" fill="#1c6836"/>
      </g>
    </g>
    <path id="Path_32905" data-name="Path 32905" d="M67.688,30a5.688,5.688,0,1,0,5.688,5.688A5.695,5.695,0,0,0,67.688,30Z" transform="translate(-55.588 -26.897)" fill="#ffda44"/>
    <path id="Path_32906" data-name="Path 32906" d="M117,30V41.377A5.688,5.688,0,0,0,117,30Z" transform="translate(-104.899 -26.897)" fill="#ffc000"/>
  </g>
</svg>
