<svg id="Group_67685" data-name="Group 67685" xmlns="http://www.w3.org/2000/svg" width="30.208" height="26.097" viewBox="0 0 30.208 26.097">
  <path id="Path_32707" data-name="Path 32707" d="M.006,53.477a7.21,7.21,0,1,0,4.862-6.8c1.618-9.281,8.856-15.266,2.147-10.34C-.424,41.8,0,53.257.007,53.467.007,53.47.006,53.473.006,53.477Z" transform="translate(0 -34.571)" fill="#60aa3e"/>
  <path id="Path_32708" data-name="Path 32708" d="M266.067,53.477a7.21,7.21,0,1,0,4.862-6.8c1.618-9.281,8.856-15.266,2.147-10.34-7.439,5.462-7.017,16.918-7.008,17.128C266.068,53.47,266.067,53.473,266.067,53.477Z" transform="translate(-250.241 -34.571)" fill="#60aa3e"/>
</svg>
