<svg id="Group_68087" data-name="Group 68087" xmlns="http://www.w3.org/2000/svg" width="18.682" height="18.682" viewBox="0 0 18.682 18.682">
  <path id="Path_32808" data-name="Path 32808" d="M17.31,4.467l.906-.906a.547.547,0,0,0-.341-.932l-1.681-.142L16.053.806A.547.547,0,0,0,15.12.466l-.906.906A9.341,9.341,0,0,0,2.736,15.946,9.341,9.341,0,0,0,17.31,4.467ZM15.142,3.04a.548.548,0,0,0,.5.5l.967.082L15.3,4.93l-1.428-.12-.12-1.428,1.309-1.309ZM11.2,9.341A1.863,1.863,0,1,1,10.211,7.7L8.954,8.954a.547.547,0,1,0,.774.774l1.257-1.257A1.848,1.848,0,0,1,11.2,9.341Zm-.2-2.44a2.959,2.959,0,1,0,.774.774l1.563-1.563a5.151,5.151,0,1,1-.774-.774Zm4.165,8.271A8.246,8.246,0,1,1,3.51,3.51a8.25,8.25,0,0,1,9.906-1.34l-.617.617a.547.547,0,0,0-.16.373c0,.02,0,.04,0,.06l.074.873a6.244,6.244,0,1,0,1.875,1.875l.873.074.046,0h.03l.035,0,.022,0,.034-.007.022-.005.033-.01.021-.008.032-.014.02-.009.031-.017.018-.011.032-.023.015-.011a.543.543,0,0,0,.043-.038l.617-.617a8.25,8.25,0,0,1-1.34,9.906Zm0,0" fill="#1c6836"/>
</svg>
