<svg xmlns="http://www.w3.org/2000/svg" width="45" height="45" viewBox="0 0 45 45">
  <g id="google" transform="translate(-366.5 599)">
    <g id="Group_26593" data-name="Group 26593" transform="translate(365.5 -599.164)">
      <g id="Group_67626" data-name="Group 67626">
        <g id="Group_67634" data-name="Group 67634">
          <rect id="Rectangle_15" data-name="Rectangle 15" width="45" height="45" rx="22.5" transform="translate(1 0.165)" fill="#fff"/>
          <g id="Group_67633" data-name="Group 67633" transform="translate(12 11.165)">
            <path id="Path_32705" data-name="Path 32705" d="M277.507,211.479H267.9a.768.768,0,0,0-.768.768v3.069a.768.768,0,0,0,.768.768h5.411a7.223,7.223,0,0,1-3.109,3.643l2.307,3.994a11.549,11.549,0,0,0,5.889-10.1,7.787,7.787,0,0,0-.132-1.508A.772.772,0,0,0,277.507,211.479Z" transform="translate(-254.841 -201.749)" fill="#167ee6"/>
            <path id="Path_32706" data-name="Path 32706" d="M44.606,337.435a7.168,7.168,0,0,1-6.2-3.588l-3.994,2.3a11.768,11.768,0,0,0,16.084,4.317v-.005l-2.307-3.994A7.115,7.115,0,0,1,44.606,337.435Z" transform="translate(-32.828 -318.488)" fill="#12b347"/>
            <path id="Path_32707" data-name="Path 32707" d="M261.889,394.778v-.005l-2.307-3.994a7.115,7.115,0,0,1-3.582.968v4.609A11.758,11.758,0,0,0,261.889,394.778Z" transform="translate(-244.222 -372.8)" fill="#0f993e"/>
            <path id="Path_32708" data-name="Path 32708" d="M4.609,134a7.116,7.116,0,0,1,.968-3.582l-3.994-2.3a11.724,11.724,0,0,0,0,11.767l3.994-2.3A7.116,7.116,0,0,1,4.609,134Z" transform="translate(0 -122.225)" fill="#ffd500"/>
            <path id="Path_32709" data-name="Path 32709" d="M44.606,4.609a7.136,7.136,0,0,1,4.552,1.634.765.765,0,0,0,1.03-.046l2.175-2.175a.774.774,0,0,0-.044-1.132,11.752,11.752,0,0,0-17.907,3L38.4,8.2A7.168,7.168,0,0,1,44.606,4.609Z" transform="translate(-32.828)" fill="#ff4b26"/>
            <path id="Path_32710" data-name="Path 32710" d="M260.552,6.243a.765.765,0,0,0,1.03-.046l2.175-2.175a.774.774,0,0,0-.044-1.132A11.742,11.742,0,0,0,256,0V4.609A7.136,7.136,0,0,1,260.552,6.243Z" transform="translate(-244.222)" fill="#d93f21"/>
          </g>
        </g>
      </g>
    </g>
  </g>
</svg>
