<svg xmlns="http://www.w3.org/2000/svg" width="45" height="45" viewBox="0 0 45 45">
  <g id="in" transform="translate(-366.5 599)">
    <g id="Group_26593" data-name="Group 26593" transform="translate(365.5 -599.164)">
      <g id="Group_67626" data-name="Group 67626">
        <rect id="Rectangle_15" data-name="Rectangle 15" width="45" height="45" rx="22.5" transform="translate(1 0.165)" fill="#006fad"/>
        <g id="Group_67632" data-name="Group 67632" transform="translate(5 3.165)">
          <g id="_x31_0.Linkedin" transform="translate(10 10)">
            <path id="Path_32702" data-name="Path 32702" d="M50.064,47.747V41.08c0-3.277-.705-5.78-4.528-5.78a3.951,3.951,0,0,0-3.573,1.957h-.046V35.6H38.3V47.747h3.777v-6.03c0-1.593.3-3.117,2.253-3.117,1.934,0,1.957,1.8,1.957,3.208v5.916h3.777Z" transform="translate(-31.86 -29.543)" fill="#fff"/>
            <path id="Path_32703" data-name="Path 32703" d="M11.3,36.6h3.777V48.751H11.3Z" transform="translate(-11.004 -30.547)" fill="#fff"/>
            <path id="Path_32704" data-name="Path 32704" d="M12.184,10a2.2,2.2,0,1,0,2.184,2.184A2.185,2.185,0,0,0,12.184,10Z" transform="translate(-10 -10)" fill="#fff"/>
          </g>
        </g>
      </g>
    </g>
  </g>
</svg>
