<svg xmlns="http://www.w3.org/2000/svg" width="194.729" height="167.146" viewBox="0 0 194.729 167.146">
  <g id="Group_8" data-name="Group 8" transform="translate(-44.691 -77.089)">
    <g id="Group_3" data-name="Group 3" transform="translate(44.691 190.356)">
      <g id="Group_2" data-name="Group 2" transform="translate(0 0)">
        <path id="Path_1" data-name="Path 1" d="M14.921-29.417c8.363,0,12.988-4.158,12.988-10.419,0-11.587-17.613-8.69-17.613-12.521,0-1.355,1.028-2.149,3.364-2.149a14.449,14.449,0,0,1,9.11,3.27l4.392-6.027A19.009,19.009,0,0,0,14.5-61.607c-7.989,0-12.381,4.672-12.381,9.9,0,12.007,17.613,8.6,17.613,12.708,0,1.542-1.682,2.476-4.392,2.476a14.109,14.109,0,0,1-10-4.111l-4.252,6.26C4.222-31.426,8.614-29.417,14.921-29.417Zm27.378,0c3.457,0,7.195-.981,9.437-2.99l-3.13-4.719a9.39,9.39,0,0,1-5.513,1.916c-3.27,0-5.139-1.682-5.653-3.691H53.512v-1.635c0-7.662-4.859-12.568-11.54-12.568a11.607,11.607,0,0,0-11.96,11.82C30.012-33.949,35.338-29.417,42.3-29.417Zm4.345-14.39h-9.3c.28-1.635,1.5-3.5,4.625-3.5C45.289-47.311,46.457-45.4,46.644-43.807ZM67.9-29.417c3.457,0,7.195-.981,9.437-2.99l-3.13-4.719A9.39,9.39,0,0,1,68.7-35.21c-3.27,0-5.139-1.682-5.653-3.691H79.115v-1.635c0-7.662-4.859-12.568-11.54-12.568a11.607,11.607,0,0,0-11.96,11.82C55.614-33.949,60.94-29.417,67.9-29.417Zm4.345-14.39h-9.3c.28-1.635,1.5-3.5,4.625-3.5C70.892-47.311,72.06-45.4,72.247-43.807ZM105-29.977V-61.14H97.849v11.26A8.319,8.319,0,0,0,91.168-53.1c-5.653,0-9.951,4.438-9.951,11.82,0,7.662,4.392,11.867,9.951,11.867a8.619,8.619,0,0,0,6.681-3.177v2.616ZM93.5-35.771c-2.85,0-4.952-2.149-4.952-5.513s2.1-5.466,4.952-5.466a5.881,5.881,0,0,1,4.345,2.009v6.915A5.927,5.927,0,0,1,93.5-35.771Zm27.612,6.354c3.457,0,7.195-.981,9.437-2.99l-3.13-4.719a9.39,9.39,0,0,1-5.513,1.916c-3.27,0-5.139-1.682-5.653-3.691h16.072v-1.635c0-7.662-4.859-12.568-11.54-12.568a11.607,11.607,0,0,0-11.96,11.82C108.829-33.949,114.155-29.417,121.116-29.417Zm4.345-14.39h-9.3c.28-1.635,1.5-3.5,4.625-3.5C124.106-47.311,125.274-45.4,125.461-43.807Zm19.109,14.39c6.447,0,10.232-3.084,10.232-7.382,0-9.251-13.082-6.681-13.082-9.157,0-.888,1.121-1.542,2.8-1.542a10.087,10.087,0,0,1,6.634,2.476l2.756-5.092a15.783,15.783,0,0,0-9.437-2.99c-6.214,0-9.671,3.457-9.671,7.429,0,9.157,13.128,6.26,13.128,9.064,0,.981-.888,1.588-3.037,1.588a14.11,14.11,0,0,1-7.942-3.037l-2.99,5.139C136.347-30.772,140.5-29.417,144.569-29.417Zm22.472,0c2.663,0,4.438-.654,5.326-1.5l-1.4-5.42a2.8,2.8,0,0,1-1.822.561,2.038,2.038,0,0,1-1.962-2.289V-46.33h4.579v-6.214h-4.579V-58.71h-7.195v6.167h-3.738v6.214h3.738v10.278C159.987-31.706,162.463-29.417,167.042-29.417Zm28.78-.561V-44.087c0-7.008-5.092-9.017-10.512-9.017a15.914,15.914,0,0,0-10.232,3.5l2.663,5a9.873,9.873,0,0,1,6.307-2.429c2.9,0,4.579,1.355,4.579,3.317v2.243c-1.355-1.682-4.018-2.663-7.008-2.663-3.457,0-7.756,1.822-7.756,7.288,0,5.046,4.3,7.429,7.756,7.429a9.321,9.321,0,0,0,7.008-2.8v2.243Zm-11.213-4.158c-1.869,0-3.6-.841-3.6-2.616s1.729-2.616,3.6-2.616c1.588,0,3.27.514,4.018,1.588v2.009A5.008,5.008,0,0,1,184.609-34.136Z" transform="translate(-1.092 61.607)" fill="#1c6836"/>
        <path id="Path_2" data-name="Path 2" d="M3.377-9.237v-3.809H6.037a2.815,2.815,0,0,0,3-2.889,2.807,2.807,0,0,0-3-2.889H2.184v9.588Zm2.516-4.873H3.377v-3.651H5.893A1.782,1.782,0,0,1,7.8-15.936,1.782,1.782,0,0,1,5.893-14.111ZM18.27-9.237v-9.588H17.192v9.588Zm14.189,0V-14.01c0-1.682-1.208-2.343-2.688-2.343A3.635,3.635,0,0,0,27-15.2l.5.748a2.711,2.711,0,0,1,2.128-.963c1.006,0,1.754.532,1.754,1.452v1.251a2.94,2.94,0,0,0-2.3-.934,2.254,2.254,0,0,0-2.415,2.286,2.308,2.308,0,0,0,2.415,2.3,2.982,2.982,0,0,0,2.3-.963v.791Zm-2.976-.6a1.563,1.563,0,0,1-1.725-1.524,1.561,1.561,0,0,1,1.725-1.509,2.346,2.346,0,0,1,1.9.848V-10.7A2.316,2.316,0,0,1,29.483-9.841Zm17.524.6v-4.873a1.969,1.969,0,0,0-2.2-2.243,3.4,3.4,0,0,0-2.487,1.179v-1.006H41.242v6.943H42.32v-5.075a2.7,2.7,0,0,1,2.056-1.078c.934,0,1.567.374,1.567,1.61v4.543Zm10.552.173a1.749,1.749,0,0,0,1.279-.446l-.316-.819a1.021,1.021,0,0,1-.733.3c-.46,0-.69-.374-.69-.891v-4.313h1.409v-.949H57.1v-1.9H56.006v1.9h-1.15v.949h1.15v4.543A1.424,1.424,0,0,0,57.558-9.065ZM80.99-9.237v-4.054l3.766-5.535H83.362l-2.976,4.456-2.976-4.456H76.016L79.8-13.291v4.054Zm12.794.173a3.418,3.418,0,0,0,3.436-3.651,3.406,3.406,0,0,0-3.436-3.637,3.406,3.406,0,0,0-3.436,3.637A3.418,3.418,0,0,0,93.784-9.065Zm0-.963a2.419,2.419,0,0,1-2.3-2.688,2.413,2.413,0,0,1,2.3-2.674,2.413,2.413,0,0,1,2.3,2.674A2.419,2.419,0,0,1,93.784-10.028Zm17.567.791v-6.943h-1.078v5.1a2.65,2.65,0,0,1-2.041,1.049c-.949,0-1.567-.359-1.567-1.581v-4.571h-1.078v4.9A1.959,1.959,0,0,0,107.8-9.065a3.4,3.4,0,0,0,2.473-1.15v.978Zm9.847,0v-4.916a2.542,2.542,0,0,1,1.9-1.107,3.561,3.561,0,0,1,.417.029v-1.107a2.992,2.992,0,0,0-2.314,1.265v-1.107H120.12v6.943Zm23.763.173c2.588,0,3.536-1.438,3.536-2.818,0-3.579-5.678-2.343-5.678-4.5,0-.906.834-1.524,1.969-1.524a3.618,3.618,0,0,1,2.774,1.15l.719-.877a4.506,4.506,0,0,0-3.393-1.351c-1.9,0-3.306,1.093-3.306,2.674,0,3.421,5.678,2.041,5.678,4.514,0,.748-.546,1.668-2.257,1.668a3.955,3.955,0,0,1-3-1.38l-.719.92A4.77,4.77,0,0,0,144.961-9.065Zm15.037,0a3.829,3.829,0,0,0,2.76-1.078l-.518-.7a3.022,3.022,0,0,1-2.156.891,2.434,2.434,0,0,1-2.487-2.4H163.2v-.273c0-2.084-1.236-3.723-3.335-3.723a3.472,3.472,0,0,0-3.421,3.637A3.446,3.446,0,0,0,160-9.065Zm2.142-4.1h-4.557a2.313,2.313,0,0,1,2.271-2.3A2.247,2.247,0,0,1,162.139-13.162Zm12.564,4.1a3.829,3.829,0,0,0,2.76-1.078l-.518-.7a3.022,3.022,0,0,1-2.156.891,2.434,2.434,0,0,1-2.487-2.4h5.606v-.273c0-2.084-1.236-3.723-3.335-3.723a3.472,3.472,0,0,0-3.421,3.637A3.446,3.446,0,0,0,174.7-9.065Zm2.142-4.1h-4.557a2.313,2.313,0,0,1,2.271-2.3A2.247,2.247,0,0,1,176.845-13.162Zm15.525,3.924v-9.588h-1.078v3.694a2.9,2.9,0,0,0-2.343-1.222c-1.811,0-3.091,1.423-3.091,3.651,0,2.257,1.279,3.637,3.091,3.637a2.923,2.923,0,0,0,2.343-1.208v1.035Zm-3.148-.791c-1.409,0-2.243-1.136-2.243-2.674s.834-2.688,2.243-2.688a2.579,2.579,0,0,1,2.07,1.121v3.134A2.567,2.567,0,0,1,189.223-10.028Z" transform="translate(1.457 62.944)" fill="#54555b"/>
      </g>
    </g>
    <g id="_Group_" data-name="&lt;Group&gt;" transform="translate(94.444 77.089)">
      <g id="_Group_2" data-name="&lt;Group&gt;">
        <path id="_Path_" data-name="&lt;Path&gt;" d="M402.557,323.934c0,35.374-36.452,58.734-68.489,44.41A48.676,48.676,0,0,1,315.586,293.9a46.188,46.188,0,0,0,24.438,69.721,34.579,34.579,0,0,1,8.523-2.721q.822-9.241,0-13.246c-.359-1.8-.821-4.775-3.748-6.058-2.1-.924-8.985-4.877-6.982-15.916q2.362,9.087,7.034,10.319c.719.205.411-2.464-1.54-4.518q7.444-1.078,10.782,14.786,3.286-15.864,10.73-14.786c-1.951,2.054-2.259,4.723-1.54,4.518q4.672-1.232,7.034-10.319c2,11.038-4.877,14.991-6.982,15.916-2.926,1.284-3.388,4.261-3.748,6.058q-.822,4,0,13.246a32.622,32.622,0,0,1,8.368,2.67c29.418-9.447,41.175-44.41,24.233-69.669A48.584,48.584,0,0,1,402.557,323.934Z" transform="translate(-305.231 -275.263)" fill="#1c6836"/>
        <path id="_Path_2" data-name="&lt;Path&gt;" d="M313.668,303.755a44.344,44.344,0,1,1,88.614,0,44.341,44.341,0,0,0-88.614,0Z" transform="translate(-309.32 -257.6)" fill="#1c6836"/>
      </g>
      <path id="_Path_3" data-name="&lt;Path&gt;" d="M348.085,311.518a6.245,6.245,0,0,1,2.208,4.415c-4,.462-6.418-5.134-4.518-8.933,3.183,3.645,8.215,4.056,5.7,8.42C351.473,314.034,350.241,312.6,348.085,311.518Z" transform="translate(-324.638 -281.638)" fill="#60aa3e"/>
      <path id="_Path_4" data-name="&lt;Path&gt;" d="M357.163,294.2a4.674,4.674,0,0,1,.051,3.44c-2.567-.667-2.772-4.877.1-7.239-.154,2.875,4,5.031,1.129,7.188A5.582,5.582,0,0,0,357.163,294.2Z" transform="translate(-329.558 -273.56)" fill="#60aa3e"/>
      <path id="_Path_5" data-name="&lt;Path&gt;" d="M369.927,282.967c.1,1.438-.1,2.464-.616,2.926-1.9-1.283-.719-4.364,1.8-5.493-.924,1.8,1.129,4.98-1.283,5.647A4.2,4.2,0,0,0,369.927,282.967Z" transform="translate(-335.956 -268.694)" fill="#60aa3e"/>
      <path id="_Path_6" data-name="&lt;Path&gt;" d="M393.55,286.136c-4.056-.924.308-6.264-.154-9.036,3.9,3.029,4.056,7.444,1.54,8.882-.719-.719-1.078-2.875-.719-4.364A6.8,6.8,0,0,0,393.55,286.136Z" transform="translate(-347.359 -267.089)" fill="#60aa3e"/>
      <path id="_Path_7" data-name="&lt;Path&gt;" d="M355.123,356.827c-2.31,3.491-5.75-2.464-8.523-3.029,4.21-2.618,8.369-1.181,8.831,1.694-.924.411-3.029,0-4.313-.873A6.839,6.839,0,0,0,355.123,356.827Z" transform="translate(-325.361 -303.741)" fill="#60aa3e"/>
      <path id="_Path_8" data-name="&lt;Path&gt;" d="M409.734,290.493c-2.413-.667-.411-3.8-1.078-5.493,2.567,1.13,3.542,4.364,1.592,5.339-.411-.565-.359-1.54-.359-2.824A5.382,5.382,0,0,0,409.734,290.493Z" transform="translate(-355.483 -270.933)" fill="#60aa3e"/>
      <path id="_Path_9" data-name="&lt;Path&gt;" d="M456.6,372.15c1.078-2.31,3.8.154,5.648-.257-1.54,2.362-4.877,2.824-5.6.77.667-.308,1.592-.1,2.875.051A5.353,5.353,0,0,0,456.6,372.15Z" transform="translate(-378.886 -312.851)" fill="#60aa3e"/>
      <path id="_Path_10" data-name="&lt;Path&gt;" d="M462.915,337.215c-1.078-2.31,2.618-2.772,3.491-4.415.77,2.721-1.027,5.545-3.08,4.723.205-.719.975-1.284,1.951-2.156a5.688,5.688,0,0,0-2.362,1.848Z" transform="translate(-381.864 -294.192)" fill="#60aa3e"/>
      <path id="_Path_11" data-name="&lt;Path&gt;" d="M449,306.718c-1.13-2.31,2.516-2.824,3.337-4.518.873,2.67-.873,5.545-2.926,4.775.205-.667.924-1.284,1.9-2.156A5.324,5.324,0,0,0,449,306.718Z" transform="translate(-375.081 -279.302)" fill="#60aa3e"/>
      <path id="_Path_12" data-name="&lt;Path&gt;" d="M399.555,332.842c-1.848-1.694,1.335-3.594,1.489-5.442,1.8,2.156,1.232,5.493-.924,5.545-.1-.719.359-1.54.924-2.721A5.622,5.622,0,0,0,399.555,332.842Z" transform="translate(-350.849 -291.564)" fill="#60aa3e"/>
      <path id="_Path_13" data-name="&lt;Path&gt;" d="M425.042,283.058c-2.413-1.232.308-4.107-.1-6.058,2.464,1.694,2.926,5.288.667,6.007a4.225,4.225,0,0,0,.154-3.132A6.179,6.179,0,0,1,425.042,283.058Z" transform="translate(-363.039 -267.04)" fill="#60aa3e"/>
      <path id="_Path_14" data-name="&lt;Path&gt;" d="M439.158,344.242c-1.181-4.261,4.929-2.824,7.239-5.442.308,5.083-3.645,7.393-6.366,6.007.205-.924,1.335-1.951,3.132-2.618A7,7,0,0,0,439.158,344.242Z" transform="translate(-370.326 -297.111)" fill="#60aa3e"/>
      <path id="_Path_15" data-name="&lt;Path&gt;" d="M450.952,326.2c-2.721-3.491,3.491-4.518,4.569-7.8,2.208,4.569-.513,8.215-3.543,8.009-.205-.975.462-2.362,1.848-3.645A6.641,6.641,0,0,0,450.952,326.2Z" transform="translate(-375.806 -287.185)" fill="#60aa3e"/>
      <path id="_Path_16" data-name="&lt;Path&gt;" d="M437.7,375.01c2.67-3.543,5.237,2.208,8.728,2.413-3.851,3.337-8.061,1.592-8.625-1.386.873-.411,2.362-.154,3.953.873A6.754,6.754,0,0,0,437.7,375.01Z" transform="translate(-369.69 -314.171)" fill="#60aa3e"/>
      <path id="_Path_17" data-name="&lt;Path&gt;" d="M327.782,346.207c-2.31,3.8-5.442-1.643-8.882-1.54,3.491-3.7,7.855-2.362,8.728.565-.873.513-2.362.359-4.056-.513a6.511,6.511,0,0,0,4.21,1.489Z" transform="translate(-311.882 -298.87)" fill="#60aa3e"/>
      <path id="_Path_18" data-name="&lt;Path&gt;" d="M358.4,377.133c2.567,3.594-3.7,4.313-4.929,7.547-2-4.621.873-8.163,3.9-7.8.154.975-.565,2.31-2.054,3.543A6.776,6.776,0,0,0,358.4,377.133Z" transform="translate(-328.38 -315.627)" fill="#60aa3e"/>
      <path id="_Path_19" data-name="&lt;Path&gt;" d="M373.331,344.37c-1.181-.411-2-1.951-2.464-3.08a5.645,5.645,0,0,0,1.951,3.594c-3.543,1.9-2.875-4.056-4.518-5.8C371.226,338.825,374.82,341.135,373.331,344.37Z" transform="translate(-335.92 -297.239)" fill="#60aa3e"/>
      <path id="_Path_20" data-name="&lt;Path&gt;" d="M446.4,363.257c-2.978-1.54-7.5,1.8-7.6-2.516a5.187,5.187,0,0,0,4.159.667,5.139,5.139,0,0,1-3.8-1.386c2.67-2.31,6.572.051,7.239,3.234Z" transform="translate(-370.225 -306.987)" fill="#60aa3e"/>
      <path id="_Path_21" data-name="&lt;Path&gt;" d="M416.789,298.4c-2.875,4.98,2.1,12.784-4.261,12.989a8.614,8.614,0,0,0,.821-7.239c-.154,2.413-.77,4.723-2.67,6.366C406.932,305.742,411.347,299.273,416.789,298.4Z" transform="translate(-355.864 -277.453)" fill="#60aa3e"/>
      <path id="_Path_22" data-name="&lt;Path&gt;" d="M467.857,353.92c-5.545-1.8-12.116,4.723-13.657-1.489a8.858,8.858,0,0,0,7.29-.667c-2.413.308-4.826.205-6.777-1.283C458.564,345.808,465.8,348.735,467.857,353.92Z" transform="translate(-377.718 -301.655)" fill="#60aa3e"/>
      <path id="_Path_23" data-name="&lt;Path&gt;" d="M425.177,326.556c-.257-3.183,1.951-5.545,4.364-7.6-3.44,1.54-5.442,3.748-6.366,6.572-4.877-6.418,6.674-7.752,9.293-14.529C435.958,317.109,432.826,326.454,425.177,326.556Z" transform="translate(-362.044 -283.584)" fill="#60aa3e"/>
      <path id="_Path_24" data-name="&lt;Path&gt;" d="M332.753,321.5c5.083,5.185,16.07,1.951,14.119,9.755a10.753,10.753,0,0,0-8.266-3.594c2.875,1.078,5.391,2.567,6.726,5.442C338.246,335.978,332.086,328.585,332.753,321.5Z" transform="translate(-318.599 -288.693)" fill="#60aa3e"/>
      <path id="_Path_25" data-name="&lt;Path&gt;" d="M365.141,326.221a3.008,3.008,0,0,1,1.386,2.362c-2-.462-3.9-1.078-2.824-5.083.976,2.1,4.569,1.746,3.337,4.621A2.718,2.718,0,0,0,365.141,326.221Z" transform="translate(-333.532 -289.666)" fill="#60aa3e"/>
      <path id="_Path_26" data-name="&lt;Path&gt;" d="M397.776,311.15c-3.183-1.489.565-4.723.205-7.65,3.542,4.569,1.8,5.083.667,7.7a5.2,5.2,0,0,1-.205-3.645A4.125,4.125,0,0,0,397.776,311.15Z" transform="translate(-349.634 -279.935)" fill="#60aa3e"/>
      <path id="_Path_27" data-name="&lt;Path&gt;" d="M409.231,338.734c-2.464-2.567,2.259-4.21,2.926-7.034,1.694,5.545-.154,5.391-2.208,7.444a5.349,5.349,0,0,1,1.181-3.491A4.032,4.032,0,0,0,409.231,338.734Z" transform="translate(-355.493 -293.656)" fill="#60aa3e"/>
      <path id="_Path_28" data-name="&lt;Path&gt;" d="M388.507,355.118c-3.491.565-2.208-4.261-4.107-6.418,5.493,1.746,4.313,3.183,4.826,6.007a5.762,5.762,0,0,1-2.208-2.926A4.252,4.252,0,0,0,388.507,355.118Z" transform="translate(-343.754 -301.929)" fill="#60aa3e"/>
      <path id="_Path_29" data-name="&lt;Path&gt;" d="M401.264,353.642c-2.721-2.259,1.694-4.467,2-7.342,2.413,5.237.565,5.339-1.181,7.6a5.253,5.253,0,0,1,.667-3.594A4.235,4.235,0,0,0,401.264,353.642Z" transform="translate(-351.531 -300.761)" fill="#60aa3e"/>
      <path id="_Path_30" data-name="&lt;Path&gt;" d="M385.436,332.982c-3.953-2.362,1.489-5.288,1.489-8.882,3.337,2.721,2.926,7.855-.462,8.933-.462-1.078-.154-2.516.565-4.261A4.86,4.86,0,0,0,385.436,332.982Z" transform="translate(-343.558 -289.958)" fill="#60aa3e"/>
      <path id="_Path_31" data-name="&lt;Path&gt;" d="M417.235,350.542c-1.489-3.029,3.389-2.721,4.569-5.442,1.181,3.234-1.284,7.085-3.9,5.956-.051-.975.719-1.694,2.105-2.567A3.811,3.811,0,0,0,417.235,350.542Z" transform="translate(-359.595 -300.177)" fill="#60aa3e"/>
      <path id="_Path_32" data-name="&lt;Path&gt;" d="M373.195,307.345c-7.752-3.851,2.772-10.114,2.516-17.045,5.7,4.313,5.853,14.786-.513,17.148-.976-2-.462-4.826.821-8.215C373.811,301.646,372.63,304.316,373.195,307.345Z" transform="translate(-336.913 -273.512)" fill="#60aa3e"/>
      <path id="_Path_33" data-name="&lt;Path&gt;" d="M335.351,363.594c-1.284,1.54-4.518,1.027-8.779-.513,2.772,2.208,5.6,3.234,8.42,2.618-2.413,8.06-11.706-3.132-16.891-1.9C322.31,358,331.654,356.766,335.351,363.594Z" transform="translate(-311.493 -306.914)" fill="#60aa3e"/>
      <path id="_Path_34" data-name="&lt;Path&gt;" d="M430.454,297.969c-1.951-2.67,2.721-3.594,3.8-6.469,1.694,3.234.205,7.65-2.875,6.982-.1-1.078.513-2,1.746-3.286A4.3,4.3,0,0,0,430.454,297.969Z" transform="translate(-365.934 -274.095)" fill="#60aa3e"/>
    </g>
  </g>
</svg>
