<svg xmlns="http://www.w3.org/2000/svg" width="154.706" height="45.236" viewBox="0 0 154.706 45.236">
  <g id="Group_8" data-name="Group 8" transform="translate(8.728 -118.715)">
    <g id="Group_3" data-name="Group 3" transform="translate(44.691 127.715)">
      <g id="Group_2" data-name="Group 2" transform="translate(0 0)">
        <path id="Path_1" data-name="Path 1" d="M8.285-44.864c4.35,0,6.756-2.163,6.756-5.419,0-6.027-9.161-4.52-9.161-6.513,0-.7.535-1.118,1.75-1.118a7.516,7.516,0,0,1,4.739,1.7l2.284-3.135a9.888,9.888,0,0,0-6.586-2.26c-4.155,0-6.44,2.43-6.44,5.152,0,6.245,9.161,4.471,9.161,6.61,0,.8-.875,1.288-2.284,1.288A7.339,7.339,0,0,1,3.3-50.7L1.092-47.439A10.018,10.018,0,0,0,8.285-44.864Zm14.24,0a7.656,7.656,0,0,0,4.909-1.555l-1.628-2.454a4.884,4.884,0,0,1-2.868,1A2.754,2.754,0,0,1,20-49.8h8.36v-.851c0-3.985-2.527-6.537-6-6.537a6.037,6.037,0,0,0-6.221,6.148C16.134-47.221,18.9-44.864,22.526-44.864Zm2.26-7.485H19.95a2.186,2.186,0,0,1,2.406-1.823C24.081-54.171,24.688-53.175,24.786-52.348Zm11.057,7.485a7.656,7.656,0,0,0,4.909-1.555l-1.628-2.454a4.884,4.884,0,0,1-2.868,1,2.754,2.754,0,0,1-2.94-1.92h8.36v-.851c0-3.985-2.527-6.537-6-6.537a6.037,6.037,0,0,0-6.221,6.148C29.451-47.221,32.222-44.864,35.842-44.864Zm2.26-7.485H33.267a2.186,2.186,0,0,1,2.406-1.823C37.4-54.171,38.005-53.175,38.1-52.348Zm17.035,7.193V-61.364H51.419v5.857a4.327,4.327,0,0,0-3.475-1.677c-2.94,0-5.176,2.309-5.176,6.148,0,3.985,2.284,6.172,5.176,6.172a4.483,4.483,0,0,0,3.475-1.652v1.361Zm-5.978-3.013a2.6,2.6,0,0,1-2.576-2.868,2.579,2.579,0,0,1,2.576-2.843,3.059,3.059,0,0,1,2.26,1.045v3.6A3.083,3.083,0,0,1,49.159-48.169Zm14.362,3.3a7.656,7.656,0,0,0,4.909-1.555L66.8-48.873a4.884,4.884,0,0,1-2.868,1,2.754,2.754,0,0,1-2.94-1.92h8.36v-.851c0-3.985-2.527-6.537-6-6.537a6.037,6.037,0,0,0-6.221,6.148C57.13-47.221,59.9-44.864,63.521-44.864Zm2.26-7.485H60.945a2.186,2.186,0,0,1,2.406-1.823C65.077-54.171,65.684-53.175,65.781-52.348Zm9.939,7.485c3.354,0,5.322-1.6,5.322-3.84,0-4.812-6.8-3.475-6.8-4.763,0-.462.583-.8,1.458-.8a5.246,5.246,0,0,1,3.451,1.288l1.434-2.649a8.21,8.21,0,0,0-4.909-1.555c-3.232,0-5.03,1.8-5.03,3.864,0,4.763,6.829,3.256,6.829,4.714,0,.51-.462.826-1.58.826a7.339,7.339,0,0,1-4.131-1.58L70.2-46.686A8.642,8.642,0,0,0,75.721-44.864Zm11.689,0a4.085,4.085,0,0,0,2.77-.778l-.729-2.819a1.454,1.454,0,0,1-.948.292,1.06,1.06,0,0,1-1.021-1.191v-4.3h2.382v-3.232H87.482V-60.1H83.74v3.208H81.8v3.232H83.74v5.346C83.74-46.054,85.028-44.864,87.409-44.864Zm14.969-.292v-7.339c0-3.645-2.649-4.69-5.468-4.69a8.277,8.277,0,0,0-5.322,1.823l1.385,2.6a5.135,5.135,0,0,1,3.281-1.264c1.507,0,2.381.7,2.381,1.725v1.166a4.7,4.7,0,0,0-3.645-1.385c-1.8,0-4.034.948-4.034,3.791a3.891,3.891,0,0,0,4.034,3.864,4.848,4.848,0,0,0,3.645-1.458v1.166Zm-5.832-2.163c-.972,0-1.871-.437-1.871-1.361s.9-1.361,1.871-1.361a2.591,2.591,0,0,1,2.09.826v1.045A2.6,2.6,0,0,1,96.547-47.318Z" transform="translate(-1.092 61.607)" fill="#1c6836"/>
        <path id="Path_2" data-name="Path 2" d="M2.8-13.914V-15.9H4.188a1.464,1.464,0,0,0,1.563-1.5,1.46,1.46,0,0,0-1.563-1.5h-2v4.987Zm1.309-2.535H2.8v-1.9H4.113a.927.927,0,0,1,.994.95A.927.927,0,0,1,4.113-16.449Zm6.438,2.535V-18.9H9.99v4.987Zm7.38,0V-16.4c0-.875-.628-1.219-1.4-1.219a1.891,1.891,0,0,0-1.443.6l.262.389a1.41,1.41,0,0,1,1.107-.5c.523,0,.912.277.912.755v.651a1.529,1.529,0,0,0-1.2-.486,1.172,1.172,0,0,0-1.256,1.189,1.2,1.2,0,0,0,1.256,1.2,1.551,1.551,0,0,0,1.2-.5v.411Zm-1.548-.314a.813.813,0,0,1-.9-.793.812.812,0,0,1,.9-.785,1.22,1.22,0,0,1,.987.441v.688A1.2,1.2,0,0,1,16.383-14.228Zm9.115.314v-2.535a1.024,1.024,0,0,0-1.144-1.166A1.767,1.767,0,0,0,23.06-17v-.523H22.5v3.612h.561v-2.639a1.407,1.407,0,0,1,1.069-.561c.486,0,.815.194.815.837v2.363Zm5.488.09a.91.91,0,0,0,.665-.232l-.164-.426a.531.531,0,0,1-.381.157c-.239,0-.359-.194-.359-.464v-2.243h.733v-.493h-.733v-.987h-.568v.987h-.6v.493h.6v2.363A.741.741,0,0,0,30.986-13.825Zm12.188-.09v-2.109L45.133-18.9h-.725L42.86-16.584,41.312-18.9h-.725l1.967,2.879v2.109Zm6.655.09a1.778,1.778,0,0,0,1.787-1.9,1.772,1.772,0,0,0-1.787-1.892,1.772,1.772,0,0,0-1.787,1.892A1.778,1.778,0,0,0,49.829-13.825Zm0-.5a1.258,1.258,0,0,1-1.2-1.4,1.255,1.255,0,0,1,1.2-1.391,1.255,1.255,0,0,1,1.2,1.391A1.258,1.258,0,0,1,49.829-14.326Zm9.137.411v-3.612h-.561v2.654a1.379,1.379,0,0,1-1.062.546c-.493,0-.815-.187-.815-.822v-2.378h-.561v2.55a1.019,1.019,0,0,0,1.151,1.151,1.767,1.767,0,0,0,1.286-.6v.508Zm5.122,0v-2.557a1.322,1.322,0,0,1,.987-.576,1.852,1.852,0,0,1,.217.015v-.576a1.556,1.556,0,0,0-1.2.658v-.576h-.561v3.612Zm12.36.09c1.346,0,1.839-.748,1.839-1.466,0-1.862-2.954-1.219-2.954-2.34,0-.471.434-.793,1.024-.793a1.882,1.882,0,0,1,1.443.6l.374-.456a2.344,2.344,0,0,0-1.765-.7c-.987,0-1.72.568-1.72,1.391,0,1.78,2.954,1.062,2.954,2.348,0,.389-.284.867-1.174.867a2.057,2.057,0,0,1-1.563-.718l-.374.479A2.481,2.481,0,0,0,76.448-13.825Zm7.821,0a1.992,1.992,0,0,0,1.436-.561l-.269-.366a1.572,1.572,0,0,1-1.122.464,1.266,1.266,0,0,1-1.294-1.249h2.916v-.142A1.754,1.754,0,0,0,84.2-17.616a1.806,1.806,0,0,0-1.78,1.892A1.793,1.793,0,0,0,84.269-13.825Zm1.114-2.131h-2.37a1.2,1.2,0,0,1,1.181-1.2A1.169,1.169,0,0,1,85.383-15.956Zm6.535,2.131a1.992,1.992,0,0,0,1.436-.561l-.269-.366a1.572,1.572,0,0,1-1.122.464,1.266,1.266,0,0,1-1.294-1.249h2.916v-.142a1.754,1.754,0,0,0-1.735-1.937,1.806,1.806,0,0,0-1.78,1.892A1.793,1.793,0,0,0,91.918-13.825Zm1.114-2.131h-2.37a1.2,1.2,0,0,1,1.181-1.2A1.169,1.169,0,0,1,93.033-15.956Zm8.075,2.041V-18.9h-.561v1.922a1.51,1.51,0,0,0-1.219-.636,1.675,1.675,0,0,0-1.608,1.9c0,1.174.665,1.892,1.608,1.892a1.52,1.52,0,0,0,1.219-.628v.538Zm-1.637-.411c-.733,0-1.166-.591-1.166-1.391s.434-1.4,1.166-1.4a1.342,1.342,0,0,1,1.077.583v1.63A1.335,1.335,0,0,1,99.47-14.326Z" transform="translate(-0.29 41.849)" fill="#54555b"/>
      </g>
    </g>
    <g id="_Group_" data-name="&lt;Group&gt;" transform="translate(-8.728 118.715)">
      <g id="_Group_2" data-name="&lt;Group&gt;">
        <path id="_Path_" data-name="&lt;Path&gt;" d="M350.451,307.855A22.609,22.609,0,1,1,310.042,293.9,21.46,21.46,0,0,0,321.4,326.294a16.066,16.066,0,0,1,3.96-1.264,23.94,23.94,0,0,0,0-6.154,3.392,3.392,0,0,0-1.741-2.815c-.978-.429-4.174-2.266-3.244-7.395q1.1,4.222,3.268,4.795c.334.1.191-1.145-.716-2.1q3.459-.5,5.009,6.87,1.527-7.371,4.986-6.87c-.906.954-1.05,2.195-.716,2.1q2.171-.573,3.268-4.795c.93,5.129-2.266,6.965-3.244,7.395a3.392,3.392,0,0,0-1.741,2.815,23.94,23.94,0,0,0,0,6.154,15.159,15.159,0,0,1,3.888,1.24,21.471,21.471,0,0,0,11.259-32.37A22.574,22.574,0,0,1,350.451,307.855Z" transform="translate(-305.231 -285.241)" fill="#1c6836"/>
        <path id="_Path_2" data-name="&lt;Path&gt;" d="M313.65,279.045a20.6,20.6,0,1,1,41.172,0,20.6,20.6,0,0,0-41.172,0Z" transform="translate(-311.63 -257.6)" fill="#1c6836"/>
      </g>
      <path id="_Path_3" data-name="&lt;Path&gt;" d="M346.494,309.1a2.9,2.9,0,0,1,1.026,2.051c-1.861.215-2.982-2.385-2.1-4.151,1.479,1.694,3.817,1.884,2.648,3.912C348.069,310.268,347.5,309.6,346.494,309.1Z" transform="translate(-335.6 -295.216)" fill="#60aa3e"/>
      <path id="_Path_4" data-name="&lt;Path&gt;" d="M356.125,292.165a2.172,2.172,0,0,1,.024,1.6c-1.193-.31-1.288-2.266.048-3.363-.072,1.336,1.861,2.338.525,3.34A2.593,2.593,0,0,0,356.125,292.165Z" transform="translate(-343.299 -282.576)" fill="#60aa3e"/>
      <path id="_Path_5" data-name="&lt;Path&gt;" d="M369.1,281.593a1.724,1.724,0,0,1-.286,1.36c-.883-.6-.334-2.028.835-2.552-.429.835.525,2.314-.6,2.624A1.953,1.953,0,0,0,369.1,281.593Z" transform="translate(-353.311 -274.961)" fill="#60aa3e"/>
      <path id="_Path_6" data-name="&lt;Path&gt;" d="M392.617,281.3c-1.884-.429.143-2.91-.072-4.2,1.813,1.407,1.884,3.459.716,4.127a2.629,2.629,0,0,1-.334-2.028A3.158,3.158,0,0,0,392.617,281.3Z" transform="translate(-371.156 -272.448)" fill="#60aa3e"/>
      <path id="_Path_7" data-name="&lt;Path&gt;" d="M350.56,354.47c-1.073,1.622-2.672-1.145-3.96-1.407,1.956-1.217,3.888-.549,4.1.787a2.605,2.605,0,0,1-2-.406A3.178,3.178,0,0,0,350.56,354.47Z" transform="translate(-336.732 -329.805)" fill="#60aa3e"/>
      <path id="_Path_8" data-name="&lt;Path&gt;" d="M409.076,287.552c-1.121-.31-.191-1.765-.5-2.552,1.193.525,1.646,2.028.739,2.481a2.489,2.489,0,0,1-.167-1.312A2.5,2.5,0,0,0,409.076,287.552Z" transform="translate(-383.87 -278.464)" fill="#60aa3e"/>
      <path id="_Path_9" data-name="&lt;Path&gt;" d="M456.6,371.613c.5-1.073,1.765.072,2.624-.119-.716,1.1-2.266,1.312-2.6.358a2.806,2.806,0,0,1,1.336.024A2.487,2.487,0,0,0,456.6,371.613Z" transform="translate(-420.492 -344.062)" fill="#60aa3e"/>
      <path id="_Path_10" data-name="&lt;Path&gt;" d="M462.81,334.851c-.5-1.073,1.217-1.288,1.622-2.051.358,1.264-.477,2.576-1.431,2.195.1-.334.453-.6.906-1a2.643,2.643,0,0,0-1.1.859Z" transform="translate(-425.152 -314.862)" fill="#60aa3e"/>
      <path id="_Path_11" data-name="&lt;Path&gt;" d="M448.881,304.3c-.525-1.073,1.169-1.312,1.551-2.1.406,1.24-.406,2.576-1.36,2.218.1-.31.429-.6.883-1A2.473,2.473,0,0,0,448.881,304.3Z" transform="translate(-414.538 -291.561)" fill="#60aa3e"/>
      <path id="_Path_12" data-name="&lt;Path&gt;" d="M399.247,329.929c-.859-.787.62-1.67.692-2.529.835,1,.573,2.552-.429,2.576a2.614,2.614,0,0,1,.429-1.264A2.612,2.612,0,0,0,399.247,329.929Z" transform="translate(-376.617 -310.75)" fill="#60aa3e"/>
      <path id="_Path_13" data-name="&lt;Path&gt;" d="M424.5,279.815c-1.121-.573.143-1.908-.048-2.815,1.145.787,1.36,2.457.31,2.791a1.963,1.963,0,0,0,.072-1.455A2.871,2.871,0,0,1,424.5,279.815Z" transform="translate(-395.693 -272.372)" fill="#60aa3e"/>
      <path id="_Path_14" data-name="&lt;Path&gt;" d="M439.078,341.329c-.549-1.98,2.29-1.312,3.363-2.529.143,2.362-1.694,3.435-2.958,2.791.1-.429.62-.906,1.455-1.217A3.251,3.251,0,0,0,439.078,341.329Z" transform="translate(-407.097 -319.43)" fill="#60aa3e"/>
      <path id="_Path_15" data-name="&lt;Path&gt;" d="M450.587,322.026c-1.264-1.622,1.622-2.1,2.123-3.626,1.026,2.123-.239,3.817-1.646,3.721a2.072,2.072,0,0,1,.859-1.694A3.085,3.085,0,0,0,450.587,322.026Z" transform="translate(-415.672 -303.897)" fill="#60aa3e"/>
      <path id="_Path_16" data-name="&lt;Path&gt;" d="M437.7,374.394c1.24-1.646,2.433,1.026,4.055,1.121-1.789,1.551-3.745.739-4.007-.644a2.077,2.077,0,0,1,1.837.406A3.138,3.138,0,0,0,437.7,374.394Z" transform="translate(-406.101 -346.127)" fill="#60aa3e"/>
      <path id="_Path_17" data-name="&lt;Path&gt;" d="M323.027,344.177c-1.073,1.765-2.529-.763-4.127-.716,1.622-1.717,3.65-1.1,4.055.262a2.086,2.086,0,0,1-1.884-.239,3.025,3.025,0,0,0,1.956.692Z" transform="translate(-315.639 -322.183)" fill="#60aa3e"/>
      <path id="_Path_18" data-name="&lt;Path&gt;" d="M355.4,376.982c1.193,1.67-1.717,2-2.29,3.507-.93-2.147.406-3.793,1.813-3.626a2.056,2.056,0,0,1-.954,1.646A3.148,3.148,0,0,0,355.4,376.982Z" transform="translate(-341.457 -348.405)" fill="#60aa3e"/>
      <path id="_Path_19" data-name="&lt;Path&gt;" d="M370.638,341.528a2.473,2.473,0,0,1-1.145-1.431,2.623,2.623,0,0,0,.906,1.67c-1.646.883-1.336-1.884-2.1-2.7C369.66,338.952,371.329,340.025,370.638,341.528Z" transform="translate(-353.256 -319.63)" fill="#60aa3e"/>
      <path id="_Path_20" data-name="&lt;Path&gt;" d="M442.33,361.029c-1.384-.716-3.483.835-3.53-1.169a2.41,2.41,0,0,0,1.932.31,2.387,2.387,0,0,1-1.765-.644c1.24-1.073,3.053.024,3.363,1.5Z" transform="translate(-406.938 -334.885)" fill="#60aa3e"/>
      <path id="_Path_21" data-name="&lt;Path&gt;" d="M412.772,298.4c-1.336,2.314.978,5.94-1.98,6.035a4,4,0,0,0,.382-3.363,4.035,4.035,0,0,1-1.24,2.958C408.192,301.811,410.244,298.806,412.772,298.4Z" transform="translate(-384.465 -288.668)" fill="#60aa3e"/>
      <path id="_Path_22" data-name="&lt;Path&gt;" d="M460.545,350.825c-2.576-.835-5.63,2.195-6.345-.692a4.116,4.116,0,0,0,3.387-.31,4.14,4.14,0,0,1-3.149-.6C456.228,347.056,459.591,348.415,460.545,350.825Z" transform="translate(-418.665 -326.541)" fill="#60aa3e"/>
      <path id="_Path_23" data-name="&lt;Path&gt;" d="M423.469,318.228c-.119-1.479.906-2.576,2.028-3.53a5.017,5.017,0,0,0-2.958,3.053c-2.266-2.982,3.1-3.6,4.318-6.751C428.478,313.839,427.023,318.18,423.469,318.228Z" transform="translate(-394.136 -298.262)" fill="#60aa3e"/>
      <path id="_Path_24" data-name="&lt;Path&gt;" d="M332.726,321.5c2.362,2.409,7.466.906,6.56,4.532a5,5,0,0,0-3.841-1.67,5.106,5.106,0,0,1,3.125,2.529C335.279,328.227,332.416,324.792,332.726,321.5Z" transform="translate(-326.15 -306.257)" fill="#60aa3e"/>
      <path id="_Path_25" data-name="&lt;Path&gt;" d="M364.2,324.764a1.4,1.4,0,0,1,.644,1.1c-.93-.215-1.813-.5-1.312-2.362.453.978,2.123.811,1.55,2.147A1.263,1.263,0,0,0,364.2,324.764Z" transform="translate(-349.518 -307.78)" fill="#60aa3e"/>
      <path id="_Path_26" data-name="&lt;Path&gt;" d="M397.084,307.054c-1.479-.692.262-2.195.1-3.554,1.646,2.123.835,2.362.31,3.578a2.417,2.417,0,0,1-.1-1.694A1.916,1.916,0,0,0,397.084,307.054Z" transform="translate(-374.717 -292.551)" fill="#60aa3e"/>
      <path id="_Path_27" data-name="&lt;Path&gt;" d="M408.852,334.968c-1.145-1.193,1.05-1.956,1.36-3.268.787,2.576-.072,2.5-1.026,3.459a2.485,2.485,0,0,1,.549-1.622A1.873,1.873,0,0,0,408.852,334.968Z" transform="translate(-383.885 -314.024)" fill="#60aa3e"/>
      <path id="_Path_28" data-name="&lt;Path&gt;" d="M386.308,351.682c-1.622.262-1.026-1.98-1.908-2.982,2.552.811,2,1.479,2.242,2.791a2.677,2.677,0,0,1-1.026-1.36A1.976,1.976,0,0,0,386.308,351.682Z" transform="translate(-365.515 -326.969)" fill="#60aa3e"/>
      <path id="_Path_29" data-name="&lt;Path&gt;" d="M400.792,349.711c-1.264-1.05.787-2.075.93-3.411,1.121,2.433.262,2.481-.549,3.53a2.441,2.441,0,0,1,.31-1.67A1.968,1.968,0,0,0,400.792,349.711Z" transform="translate(-377.685 -325.141)" fill="#60aa3e"/>
      <path id="_Path_30" data-name="&lt;Path&gt;" d="M384.665,328.227c-1.837-1.1.692-2.457.692-4.127,1.551,1.264,1.36,3.65-.215,4.151a2.687,2.687,0,0,1,.262-1.98A2.258,2.258,0,0,0,384.665,328.227Z" transform="translate(-365.207 -308.237)" fill="#60aa3e"/>
      <path id="_Path_31" data-name="&lt;Path&gt;" d="M417.085,347.629c-.692-1.407,1.574-1.264,2.123-2.529.549,1.5-.6,3.292-1.813,2.767-.024-.453.334-.787.978-1.193A1.77,1.77,0,0,0,417.085,347.629Z" transform="translate(-390.304 -324.228)" fill="#60aa3e"/>
      <path id="_Path_32" data-name="&lt;Path&gt;" d="M371.667,298.22c-3.6-1.789,1.288-4.7,1.169-7.92,2.648,2,2.719,6.87-.239,7.967-.453-.93-.215-2.242.382-3.817A4.293,4.293,0,0,0,371.667,298.22Z" transform="translate(-354.809 -282.5)" fill="#60aa3e"/>
      <path id="_Path_33" data-name="&lt;Path&gt;" d="M326.115,361.105c-.6.716-2.1.477-4.079-.239a4.659,4.659,0,0,0,3.912,1.217c-1.121,3.745-5.439-1.455-7.848-.883C320.056,358.505,324.4,357.933,326.115,361.105Z" transform="translate(-315.03 -334.77)" fill="#60aa3e"/>
      <path id="_Path_34" data-name="&lt;Path&gt;" d="M430.2,294.506c-.906-1.24,1.264-1.67,1.765-3.006.787,1.5.1,3.554-1.336,3.244-.048-.5.239-.93.811-1.527A2,2,0,0,0,430.2,294.506Z" transform="translate(-400.224 -283.413)" fill="#60aa3e"/>
    </g>
  </g>
</svg>
