<svg xmlns="http://www.w3.org/2000/svg" width="168.29" height="49.208" viewBox="0 0 168.29 49.208">
  <g id="Group_67885" data-name="Group 67885" transform="translate(8.728 -118.715)">
    <g id="Group_3" data-name="Group 3" transform="translate(49.381 128.505)">
      <g id="Group_2" data-name="Group 2" transform="translate(0 0)">
        <path id="Path_1" data-name="Path 1" d="M8.917-43.394c4.732,0,7.349-2.353,7.349-5.895,0-6.556-9.966-4.917-9.966-7.084,0-.767.582-1.216,1.9-1.216a8.176,8.176,0,0,1,5.155,1.85l2.485-3.41a10.756,10.756,0,0,0-7.164-2.458c-4.52,0-7.005,2.643-7.005,5.6,0,6.794,9.966,4.864,9.966,7.19,0,.872-.952,1.4-2.485,1.4A7.983,7.983,0,0,1,3.5-49.738L1.092-46.2A10.9,10.9,0,0,0,8.917-43.394Zm15.491,0a8.329,8.329,0,0,0,5.34-1.692l-1.771-2.67a5.313,5.313,0,0,1-3.119,1.084,3,3,0,0,1-3.2-2.088h9.094v-.925c0-4.335-2.749-7.111-6.529-7.111a6.567,6.567,0,0,0-6.767,6.688C17.455-45.958,20.469-43.394,24.407-43.394Zm2.458-8.142H21.605a2.378,2.378,0,0,1,2.617-1.983C26.1-53.518,26.76-52.434,26.866-51.535Zm12.028,8.142a8.329,8.329,0,0,0,5.34-1.692l-1.771-2.67a5.313,5.313,0,0,1-3.119,1.084,3,3,0,0,1-3.2-2.088h9.094v-.925c0-4.335-2.749-7.111-6.529-7.111a6.567,6.567,0,0,0-6.767,6.688C31.941-45.958,34.955-43.394,38.894-43.394Zm2.458-8.142h-5.26a2.378,2.378,0,0,1,2.617-1.983C40.585-53.518,41.246-52.434,41.352-51.535Zm18.531,7.825V-61.343H55.838v6.371a4.707,4.707,0,0,0-3.78-1.824c-3.2,0-5.631,2.511-5.631,6.688,0,4.335,2.485,6.714,5.631,6.714a4.877,4.877,0,0,0,3.78-1.8v1.48Zm-6.5-3.278a2.829,2.829,0,0,1-2.8-3.119,2.806,2.806,0,0,1,2.8-3.093,3.328,3.328,0,0,1,2.458,1.137v3.912A3.353,3.353,0,0,1,53.38-46.989ZM69-43.394a8.329,8.329,0,0,0,5.34-1.692l-1.771-2.67a5.313,5.313,0,0,1-3.119,1.084,3,3,0,0,1-3.2-2.088h9.094v-.925c0-4.335-2.749-7.111-6.529-7.111a6.567,6.567,0,0,0-6.767,6.688C62.05-45.958,65.064-43.394,69-43.394Zm2.458-8.142H66.2a2.378,2.378,0,0,1,2.617-1.983C70.695-53.518,71.355-52.434,71.461-51.535Zm10.812,8.142c3.648,0,5.789-1.745,5.789-4.177,0-5.234-7.4-3.78-7.4-5.181,0-.5.634-.872,1.586-.872A5.707,5.707,0,0,1,86-52.223L87.56-55.1A8.93,8.93,0,0,0,82.22-56.8c-3.516,0-5.472,1.956-5.472,4.2,0,5.181,7.428,3.542,7.428,5.128,0,.555-.5.9-1.718.9a7.983,7.983,0,0,1-4.494-1.718l-1.692,2.908A9.4,9.4,0,0,0,82.273-43.394Zm12.715,0A4.443,4.443,0,0,0,98-44.239l-.793-3.066a1.582,1.582,0,0,1-1.031.317,1.153,1.153,0,0,1-1.11-1.3v-4.679h2.591v-3.516H95.067v-3.489H91v3.489H88.882v3.516H91v5.816C91-44.689,92.4-43.394,94.988-43.394Zm16.284-.317v-7.983c0-3.965-2.881-5.1-5.948-5.1a9,9,0,0,0-5.789,1.983l1.507,2.829a5.586,5.586,0,0,1,3.569-1.375c1.639,0,2.591.767,2.591,1.877v1.269a5.113,5.113,0,0,0-3.965-1.507c-1.956,0-4.388,1.031-4.388,4.124a4.232,4.232,0,0,0,4.388,4.2A5.274,5.274,0,0,0,107.2-44.98v1.269Zm-6.344-2.353c-1.057,0-2.035-.476-2.035-1.48s.978-1.48,2.035-1.48a2.818,2.818,0,0,1,2.273.9v1.137A2.833,2.833,0,0,1,104.927-46.063Z" transform="translate(-1.092 61.607)" fill="#fff"/>
        <path id="Path_2" data-name="Path 2" d="M2.859-13.469v-2.155h1.5a1.593,1.593,0,0,0,1.7-1.635,1.588,1.588,0,0,0-1.7-1.635H2.184v5.425Zm1.423-2.757H2.859v-2.066H4.283A1.008,1.008,0,0,1,5.364-17.26,1.008,1.008,0,0,1,4.283-16.227Zm7,2.757v-5.425h-.61v5.425Zm8.028,0v-2.7c0-.952-.683-1.326-1.521-1.326a2.057,2.057,0,0,0-1.57.651l.285.423a1.534,1.534,0,0,1,1.2-.545c.569,0,.992.3.992.822v.708a1.664,1.664,0,0,0-1.3-.529,1.275,1.275,0,0,0-1.366,1.293,1.306,1.306,0,0,0,1.366,1.3,1.687,1.687,0,0,0,1.3-.545v.447Zm-1.684-.342a.885.885,0,0,1-.976-.862.883.883,0,0,1,.976-.854,1.328,1.328,0,0,1,1.074.48v.748A1.31,1.31,0,0,1,17.63-13.811Zm9.915.342v-2.757A1.114,1.114,0,0,0,26.3-17.5a1.923,1.923,0,0,0-1.407.667V-17.4h-.61v3.929h.61v-2.871a1.53,1.53,0,0,1,1.163-.61c.529,0,.887.211.887.911v2.57Zm5.97.1a.99.99,0,0,0,.724-.252l-.179-.464a.577.577,0,0,1-.415.171c-.26,0-.39-.211-.39-.5v-2.44h.8V-17.4h-.8v-1.074h-.618V-17.4h-.651v.537h.651v2.57A.806.806,0,0,0,33.515-13.372Zm13.258-.1v-2.294L48.9-18.895h-.789l-1.684,2.521-1.684-2.521h-.789L46.1-15.763v2.294Zm7.239.1a1.934,1.934,0,0,0,1.944-2.066A1.927,1.927,0,0,0,54.012-17.5a1.927,1.927,0,0,0-1.944,2.058A1.934,1.934,0,0,0,54.012-13.372Zm0-.545a1.368,1.368,0,0,1-1.3-1.521,1.366,1.366,0,0,1,1.3-1.513,1.366,1.366,0,0,1,1.3,1.513A1.368,1.368,0,0,1,54.012-13.917Zm9.939.447V-17.4h-.61v2.887a1.5,1.5,0,0,1-1.155.594c-.537,0-.887-.2-.887-.895V-17.4h-.61v2.774a1.108,1.108,0,0,0,1.253,1.253,1.922,1.922,0,0,0,1.4-.651v.553Zm5.572,0v-2.782a1.438,1.438,0,0,1,1.074-.626,2.015,2.015,0,0,1,.236.016v-.626a1.693,1.693,0,0,0-1.31.716V-17.4h-.61v3.929Zm13.445.1c1.464,0,2-.813,2-1.594,0-2.025-3.213-1.326-3.213-2.546,0-.512.472-.862,1.114-.862a2.047,2.047,0,0,1,1.57.651l.407-.5a2.55,2.55,0,0,0-1.92-.765c-1.074,0-1.871.618-1.871,1.513,0,1.936,3.213,1.155,3.213,2.554,0,.423-.309.944-1.277.944a2.238,2.238,0,0,1-1.7-.781l-.407.521A2.7,2.7,0,0,0,82.968-13.372Zm8.508,0a2.167,2.167,0,0,0,1.562-.61l-.293-.4a1.71,1.71,0,0,1-1.22.5,1.377,1.377,0,0,1-1.407-1.358H93.29v-.155A1.908,1.908,0,0,0,91.4-17.5a1.965,1.965,0,0,0-1.936,2.058A1.95,1.95,0,0,0,91.476-13.372Zm1.212-2.318H90.11a1.309,1.309,0,0,1,1.285-1.3A1.272,1.272,0,0,1,92.688-15.69ZM99.8-13.372a2.167,2.167,0,0,0,1.562-.61l-.293-.4a1.71,1.71,0,0,1-1.22.5,1.377,1.377,0,0,1-1.407-1.358h3.172v-.155A1.908,1.908,0,0,0,99.724-17.5a1.965,1.965,0,0,0-1.936,2.058A1.95,1.95,0,0,0,99.8-13.372Zm1.212-2.318H98.431a1.309,1.309,0,0,1,1.285-1.3A1.272,1.272,0,0,1,101.009-15.69Zm8.784,2.221v-5.425h-.61v2.09a1.642,1.642,0,0,0-1.326-.691,1.822,1.822,0,0,0-1.749,2.066c0,1.277.724,2.058,1.749,2.058a1.654,1.654,0,0,0,1.326-.683v.586Zm-1.781-.447c-.8,0-1.269-.643-1.269-1.513s.472-1.521,1.269-1.521a1.459,1.459,0,0,1,1.171.634v1.773A1.452,1.452,0,0,1,108.012-13.917Z" transform="translate(-0.124 43.857)" fill="#fff"/>
      </g>
    </g>
    <g id="_Group_" data-name="&lt;Group&gt;" transform="translate(-8.728 118.715)">
      <g id="_Group_2" data-name="&lt;Group&gt;">
        <path id="_Path_" data-name="&lt;Path&gt;" d="M354.422,309.08a24.594,24.594,0,1,1-43.957-15.18,23.344,23.344,0,0,0,12.352,35.238,17.477,17.477,0,0,1,4.307-1.375,26.039,26.039,0,0,0,0-6.695,3.689,3.689,0,0,0-1.894-3.062c-1.064-.467-4.541-2.465-3.529-8.044q1.194,4.593,3.555,5.216c.363.1.208-1.246-.778-2.283q3.763-.545,5.449,7.473,1.661-8.018,5.423-7.473c-.986,1.038-1.142,2.387-.778,2.283q2.361-.623,3.555-5.216c1.012,5.579-2.465,7.577-3.529,8.044a3.689,3.689,0,0,0-1.894,3.062,26.042,26.042,0,0,0,0,6.695,16.489,16.489,0,0,1,4.23,1.349A23.356,23.356,0,0,0,349.18,293.9,24.556,24.556,0,0,1,354.422,309.08Z" transform="translate(-305.231 -284.481)" fill="#fff"/>
        <path id="_Path_2" data-name="&lt;Path&gt;" d="M313.651,280.928a22.412,22.412,0,1,1,44.787,0,22.411,22.411,0,0,0-44.787,0Z" transform="translate(-311.454 -257.6)" fill="#fff"/>
      </g>
      <path id="_Path_3" data-name="&lt;Path&gt;" d="M346.616,309.284a3.156,3.156,0,0,1,1.116,2.232c-2.024.234-3.244-2.595-2.283-4.515,1.609,1.842,4.152,2.05,2.88,4.256C348.328,310.555,347.705,309.828,346.616,309.284Z" transform="translate(-334.765 -294.181)" fill="#fff"/>
      <path id="_Path_4" data-name="&lt;Path&gt;" d="M356.2,292.32a2.362,2.362,0,0,1,.026,1.739c-1.3-.337-1.4-2.465.052-3.659-.078,1.453,2.024,2.543.571,3.633A2.821,2.821,0,0,0,356.2,292.32Z" transform="translate(-342.252 -281.889)" fill="#fff"/>
      <path id="_Path_5" data-name="&lt;Path&gt;" d="M369.159,281.7a1.876,1.876,0,0,1-.311,1.479c-.96-.649-.363-2.206.908-2.776-.467.908.571,2.517-.649,2.854A2.124,2.124,0,0,0,369.159,281.7Z" transform="translate(-351.989 -274.484)" fill="#fff"/>
      <path id="_Path_6" data-name="&lt;Path&gt;" d="M392.689,281.667c-2.05-.467.156-3.166-.078-4.567,1.972,1.531,2.05,3.763.779,4.489a2.859,2.859,0,0,1-.363-2.206A3.436,3.436,0,0,0,392.689,281.667Z" transform="translate(-369.343 -272.04)" fill="#fff"/>
      <path id="_Path_7" data-name="&lt;Path&gt;" d="M350.908,354.65c-1.168,1.764-2.906-1.246-4.307-1.531,2.128-1.323,4.23-.6,4.463.856a2.834,2.834,0,0,1-2.18-.441A3.457,3.457,0,0,0,350.908,354.65Z" transform="translate(-335.866 -327.819)" fill="#fff"/>
      <path id="_Path_8" data-name="&lt;Path&gt;" d="M409.126,287.776c-1.22-.337-.208-1.92-.545-2.777,1.3.571,1.79,2.206.8,2.7a2.707,2.707,0,0,1-.182-1.427A2.721,2.721,0,0,0,409.126,287.776Z" transform="translate(-381.707 -277.89)" fill="#fff"/>
      <path id="_Path_9" data-name="&lt;Path&gt;" d="M456.6,371.654c.545-1.168,1.92.078,2.854-.13-.779,1.194-2.465,1.427-2.828.389a3.053,3.053,0,0,1,1.453.026A2.705,2.705,0,0,0,456.6,371.654Z" transform="translate(-417.322 -341.684)" fill="#fff"/>
      <path id="_Path_10" data-name="&lt;Path&gt;" d="M462.818,335.032c-.545-1.168,1.323-1.4,1.764-2.232.389,1.375-.519,2.8-1.557,2.387.1-.363.493-.649.986-1.09a2.875,2.875,0,0,0-1.194.934Z" transform="translate(-421.854 -313.287)" fill="#fff"/>
      <path id="_Path_11" data-name="&lt;Path&gt;" d="M448.89,304.483c-.571-1.168,1.271-1.427,1.687-2.283.441,1.349-.441,2.8-1.479,2.413.1-.337.467-.649.96-1.09A2.69,2.69,0,0,0,448.89,304.483Z" transform="translate(-411.532 -290.627)" fill="#fff"/>
      <path id="_Path_12" data-name="&lt;Path&gt;" d="M399.27,330.151c-.934-.856.675-1.816.753-2.751.908,1.09.623,2.776-.467,2.8a2.844,2.844,0,0,1,.467-1.375A2.842,2.842,0,0,0,399.27,330.151Z" transform="translate(-374.653 -309.288)" fill="#fff"/>
      <path id="_Path_13" data-name="&lt;Path&gt;" d="M424.543,280.062c-1.22-.623.156-2.076-.052-3.062,1.246.856,1.479,2.673.337,3.036a2.135,2.135,0,0,0,.078-1.583A3.123,3.123,0,0,1,424.543,280.062Z" transform="translate(-393.205 -271.966)" fill="#fff"/>
      <path id="_Path_14" data-name="&lt;Path&gt;" d="M439.084,341.551c-.6-2.154,2.491-1.427,3.659-2.751.156,2.569-1.842,3.737-3.218,3.036.1-.467.675-.986,1.583-1.323A3.536,3.536,0,0,0,439.084,341.551Z" transform="translate(-404.295 -317.73)" fill="#fff"/>
      <path id="_Path_15" data-name="&lt;Path&gt;" d="M450.614,322.344c-1.375-1.764,1.764-2.283,2.309-3.944,1.116,2.309-.259,4.152-1.79,4.048a2.254,2.254,0,0,1,.934-1.842A3.356,3.356,0,0,0,450.614,322.344Z" transform="translate(-412.634 -302.623)" fill="#fff"/>
      <path id="_Path_16" data-name="&lt;Path&gt;" d="M437.7,374.441c1.349-1.791,2.647,1.116,4.411,1.219-1.946,1.687-4.074.8-4.359-.7a2.26,2.26,0,0,1,2,.441A3.413,3.413,0,0,0,437.7,374.441Z" transform="translate(-403.326 -343.692)" fill="#fff"/>
      <path id="_Path_17" data-name="&lt;Path&gt;" d="M323.389,344.331c-1.168,1.92-2.751-.83-4.489-.778,1.764-1.868,3.97-1.194,4.411.285a2.269,2.269,0,0,1-2.05-.26,3.291,3.291,0,0,0,2.128.752Z" transform="translate(-315.353 -320.407)" fill="#fff"/>
      <path id="_Path_18" data-name="&lt;Path&gt;" d="M355.632,376.993c1.3,1.816-1.868,2.18-2.491,3.814-1.012-2.335.441-4.126,1.972-3.944a2.237,2.237,0,0,1-1.038,1.79A3.425,3.425,0,0,0,355.632,376.993Z" transform="translate(-340.46 -345.907)" fill="#fff"/>
      <path id="_Path_19" data-name="&lt;Path&gt;" d="M370.843,341.745a2.69,2.69,0,0,1-1.246-1.557,2.853,2.853,0,0,0,.986,1.816c-1.79.96-1.453-2.05-2.283-2.932C369.779,338.942,371.6,340.11,370.843,341.745Z" transform="translate(-351.935 -317.924)" fill="#fff"/>
      <path id="_Path_20" data-name="&lt;Path&gt;" d="M442.64,361.2c-1.505-.778-3.789.908-3.84-1.271a2.621,2.621,0,0,0,2.1.337,2.6,2.6,0,0,1-1.92-.7c1.349-1.168,3.321.026,3.659,1.635Z" transform="translate(-404.141 -332.759)" fill="#fff"/>
      <path id="_Path_21" data-name="&lt;Path&gt;" d="M413.078,298.4c-1.453,2.517,1.064,6.461-2.154,6.565a4.353,4.353,0,0,0,.415-3.659,4.389,4.389,0,0,1-1.349,3.218C408.1,302.111,410.328,298.841,413.078,298.4Z" transform="translate(-382.285 -287.813)" fill="#fff"/>
      <path id="_Path_22" data-name="&lt;Path&gt;" d="M461.1,351.06c-2.8-.908-6.124,2.387-6.9-.752a4.477,4.477,0,0,0,3.685-.337,4.5,4.5,0,0,1-3.425-.649C456.406,346.961,460.064,348.44,461.1,351.06Z" transform="translate(-415.545 -324.645)" fill="#fff"/>
      <path id="_Path_23" data-name="&lt;Path&gt;" d="M423.6,318.862c-.13-1.609.986-2.8,2.206-3.84a5.457,5.457,0,0,0-3.218,3.321c-2.465-3.244,3.373-3.918,4.7-7.343C429.048,314.088,427.465,318.811,423.6,318.862Z" transform="translate(-391.69 -297.143)" fill="#fff"/>
      <path id="_Path_24" data-name="&lt;Path&gt;" d="M332.728,321.5c2.569,2.621,8.122.986,7.136,4.93a5.435,5.435,0,0,0-4.178-1.816,5.554,5.554,0,0,1,3.4,2.751C335.5,328.817,332.391,325.081,332.728,321.5Z" transform="translate(-325.575 -304.919)" fill="#fff"/>
      <path id="_Path_25" data-name="&lt;Path&gt;" d="M364.276,324.875a1.52,1.52,0,0,1,.7,1.194c-1.012-.234-1.972-.545-1.427-2.569.493,1.064,2.309.882,1.687,2.335A1.374,1.374,0,0,0,364.276,324.875Z" transform="translate(-348.3 -306.4)" fill="#fff"/>
      <path id="_Path_26" data-name="&lt;Path&gt;" d="M397.137,307.366c-1.609-.753.285-2.387.1-3.866,1.79,2.309.908,2.569.337,3.892a2.629,2.629,0,0,1-.1-1.842A2.085,2.085,0,0,0,397.137,307.366Z" transform="translate(-372.806 -291.59)" fill="#fff"/>
      <path id="_Path_27" data-name="&lt;Path&gt;" d="M408.881,335.255c-1.245-1.3,1.142-2.128,1.479-3.555.856,2.8-.078,2.725-1.116,3.763a2.7,2.7,0,0,1,.6-1.764A2.038,2.038,0,0,0,408.881,335.255Z" transform="translate(-381.721 -312.472)" fill="#fff"/>
      <path id="_Path_28" data-name="&lt;Path&gt;" d="M386.476,351.944c-1.764.285-1.116-2.154-2.076-3.244,2.776.882,2.18,1.609,2.439,3.036a2.913,2.913,0,0,1-1.116-1.479A2.149,2.149,0,0,0,386.476,351.944Z" transform="translate(-363.857 -325.061)" fill="#fff"/>
      <path id="_Path_29" data-name="&lt;Path&gt;" d="M400.828,350.011c-1.375-1.142.856-2.258,1.012-3.711,1.22,2.647.285,2.7-.6,3.84a2.655,2.655,0,0,1,.337-1.816A2.14,2.14,0,0,0,400.828,350.011Z" transform="translate(-375.692 -323.284)" fill="#fff"/>
      <path id="_Path_30" data-name="&lt;Path&gt;" d="M384.724,328.589c-2-1.194.753-2.673.753-4.489,1.687,1.375,1.479,3.97-.234,4.515a2.923,2.923,0,0,1,.285-2.154A2.456,2.456,0,0,0,384.724,328.589Z" transform="translate(-363.558 -306.844)" fill="#fff"/>
      <path id="_Path_31" data-name="&lt;Path&gt;" d="M417.1,347.851c-.752-1.531,1.713-1.375,2.309-2.751.6,1.635-.649,3.581-1.972,3.01-.026-.493.363-.856,1.064-1.3A1.926,1.926,0,0,0,417.1,347.851Z" transform="translate(-387.964 -322.395)" fill="#fff"/>
      <path id="_Path_32" data-name="&lt;Path&gt;" d="M371.783,298.915c-3.918-1.946,1.4-5.112,1.271-8.615,2.88,2.18,2.958,7.473-.259,8.667-.493-1.012-.234-2.439.415-4.152A4.67,4.67,0,0,0,371.783,298.915Z" transform="translate(-353.446 -281.815)" fill="#fff"/>
      <path id="_Path_33" data-name="&lt;Path&gt;" d="M326.819,361.295c-.649.778-2.283.519-4.437-.26a5.068,5.068,0,0,0,4.256,1.323c-1.22,4.074-5.916-1.583-8.537-.96C320.228,358.467,324.95,357.844,326.819,361.295Z" transform="translate(-314.761 -332.648)" fill="#fff"/>
      <path id="_Path_34" data-name="&lt;Path&gt;" d="M430.221,294.77c-.986-1.349,1.375-1.816,1.92-3.27.856,1.635.1,3.866-1.453,3.529-.052-.545.26-1.012.882-1.661A2.175,2.175,0,0,0,430.221,294.77Z" transform="translate(-397.612 -282.703)" fill="#fff"/>
    </g>
  </g>
</svg>
