<svg xmlns="http://www.w3.org/2000/svg" xmlns:xlink="http://www.w3.org/1999/xlink" width="330.315" height="184.915" viewBox="0 0 330.315 184.915">
  <defs>
    <linearGradient id="linear-gradient" x1="1.545" y1="5.2" x2="-1.376" y2="2.175" gradientUnits="objectBoundingBox">
      <stop offset="0" stop-color="#fff"/>
      <stop offset="1" stop-color="#eee"/>
    </linearGradient>
  </defs>
  <g id="Group_67693" data-name="Group 67693" transform="translate(-109 -243)">
    <g id="Group_67663" data-name="Group 67663" transform="translate(109 243)">
      <g id="Group_67640" data-name="Group 67640" transform="translate(0)">
        <g id="Ellipse_6" data-name="Ellipse 6" transform="translate(217.796 164.114)" fill="#fff" stroke="#4ca03e" stroke-width="2">
          <circle cx="10.401" cy="10.401" r="10.401" stroke="none"/>
          <circle cx="10.401" cy="10.401" r="9.401" fill="none"/>
        </g>
        <g id="Ellipse_559" data-name="Ellipse 559" transform="translate(34.746 66.349)" fill="#fff" stroke="#4ca03e" stroke-width="2">
          <circle cx="10.401" cy="10.401" r="10.401" stroke="none"/>
          <circle cx="10.401" cy="10.401" r="9.401" fill="none"/>
        </g>
        <path id="Path_32210" data-name="Path 32210" d="M586.364,382.741h3.466a1.514,1.514,0,0,1,1.513,1.513v3.466a1.514,1.514,0,0,1-1.513,1.513h-3.466a1.518,1.518,0,0,1-1.513-1.513v-3.466A1.51,1.51,0,0,1,586.364,382.741Zm12.017,0h3.466a1.519,1.519,0,0,1,1.513,1.513v3.466a1.514,1.514,0,0,1-1.513,1.513H598.38a1.518,1.518,0,0,1-1.513-1.513v-3.466A1.519,1.519,0,0,1,598.38,382.741Zm12.025,0h3.466a1.518,1.518,0,0,1,1.513,1.513v3.466a1.514,1.514,0,0,1-1.513,1.513h-3.466a1.518,1.518,0,0,1-1.513-1.513v-3.466A1.509,1.509,0,0,1,610.405,382.741Zm12.017,0h3.466a1.519,1.519,0,0,1,1.513,1.513v3.466a1.514,1.514,0,0,1-1.513,1.513h-3.466a1.52,1.52,0,0,1-1.519-1.513v-3.466A1.529,1.529,0,0,1,622.422,382.741Zm12.018,0h3.466a1.521,1.521,0,0,1,1.52,1.513v3.466a1.515,1.515,0,0,1-1.519,1.513H634.44a1.518,1.518,0,0,1-1.513-1.513v-3.466A1.519,1.519,0,0,1,634.44,382.741Zm-35.619,13.1h3.466a1.518,1.518,0,0,1,1.513,1.513v3.474a1.519,1.519,0,0,1-1.513,1.513h-3.466a1.513,1.513,0,0,1-1.513-1.513v-3.466a1.51,1.51,0,0,1,1.5-1.52Zm12.017,0H614.3a1.519,1.519,0,0,1,1.513,1.513v3.474a1.519,1.519,0,0,1-1.513,1.513h-3.466a1.518,1.518,0,0,1-1.513-1.513v-3.466a1.511,1.511,0,0,1,1.5-1.52Zm12.018,0h3.466a1.52,1.52,0,0,1,1.52,1.513v3.474a1.52,1.52,0,0,1-1.52,1.513h-3.466a1.519,1.519,0,0,1-1.513-1.513v-3.466A1.52,1.52,0,0,1,622.856,395.845Zm-12.45-27.181h3.466a1.518,1.518,0,0,1,1.513,1.513v3.466a1.513,1.513,0,0,1-1.513,1.513h-3.466a1.518,1.518,0,0,1-1.513-1.513v-3.466A1.509,1.509,0,0,1,610.405,368.664Zm12.017,0h3.466a1.519,1.519,0,0,1,1.513,1.513v3.466a1.514,1.514,0,0,1-1.513,1.513h-3.466a1.52,1.52,0,0,1-1.519-1.513v-3.466A1.529,1.529,0,0,1,622.422,368.664Z" transform="translate(-326.361 -227.829)" fill="#e1e4e5"/>
        <path id="Path_32211" data-name="Path 32211" d="M27.25,28.086C14.007,31.224,0,19.993,0,19.993S7.474,3.681,20.722.554,47.967,8.638,47.967,8.638,40.493,24.949,27.25,28.086Z" transform="matrix(0.951, -0.309, 0.309, 0.951, 275.845, 89.493)" fill="url(#linear-gradient)"/>
        <path id="Path_32213" data-name="Path 32213" d="M33.534,35.008C50.127,31.653,60.1,11.671,60.1,11.671S43.158-2.861,26.565.506,0,23.83,0,23.83,16.94,38.362,33.534,35.008Z" transform="matrix(0.809, 0.588, -0.588, 0.809, 20.873, 0)" fill="url(#linear-gradient)"/>
        <circle id="Ellipse_554" data-name="Ellipse 554" cx="5.724" cy="5.724" r="5.724" transform="translate(16.172 99.042)" fill="#e1e4e5"/>
        <circle id="Ellipse_558" data-name="Ellipse 558" cx="9.932" cy="9.932" r="9.932" transform="translate(275.845 52.121)" fill="#e1e4e5"/>
      </g>
    </g>
    <g id="Group_67692" data-name="Group 67692" transform="translate(204.684 260.659)">
      <g id="Group_67691" data-name="Group 67691">
        <path id="Path_32735" data-name="Path 32735" d="M233.25,27.659a4.45,4.45,0,0,1-4.45-4.45V13.35a4.45,4.45,0,0,0-8.9,0v9.859a4.45,4.45,0,1,1-8.9,0V13.35a13.35,13.35,0,0,1,26.7,0v9.859A4.45,4.45,0,0,1,233.25,27.659Z" transform="translate(-157.601 0)" fill="#72be4f"/>
        <path id="Path_32736" data-name="Path 32736" d="M260.45,13.35v9.859a4.45,4.45,0,1,0,8.9,0V13.35A13.365,13.365,0,0,0,256,0V8.9A4.455,4.455,0,0,1,260.45,13.35Z" transform="translate(-189.251 0)" fill="#1c6836"/>
        <path id="Path_32737" data-name="Path 32737" d="M203.25,448.7A22.275,22.275,0,0,1,181,426.45a4.45,4.45,0,0,1,4.45-4.45h35.6a4.45,4.45,0,0,1,4.45,4.45A22.275,22.275,0,0,1,203.25,448.7Z" transform="translate(-136.501 -296.809)" fill="#74bc53"/>
        <path id="Path_32738" data-name="Path 32738" d="M273.8,422H256v26.7a22.275,22.275,0,0,0,22.25-22.25A4.45,4.45,0,0,0,273.8,422Z" transform="translate(-189.251 -296.809)" fill="#1c6836"/>
        <path id="Path_32739" data-name="Path 32739" d="M160.048,176.292H35.45a4.45,4.45,0,0,1-3.212-7.53,69.874,69.874,0,0,0,19.528-48.58v-14.2a45.983,45.983,0,0,1,91.965,0v14.2a69.873,69.873,0,0,0,19.528,48.58,4.45,4.45,0,0,1-3.212,7.53Z" transform="translate(-31 -42.2)" fill="#60aa3e"/>
        <path id="Path_32740" data-name="Path 32740" d="M318.3,176.292a4.45,4.45,0,0,0,3.212-7.53,69.873,69.873,0,0,1-19.528-48.58v-14.2A46.035,46.035,0,0,0,256,60V176.292Z" transform="translate(-189.251 -42.2)" fill="#1c6836"/>
        <path id="Path_32741" data-name="Path 32741" d="M412.189,104.459a4.45,4.45,0,0,1-4.45-4.45A57.469,57.469,0,0,0,390.8,59.1a4.45,4.45,0,0,1,6.293-6.293,66.311,66.311,0,0,1,19.55,47.2A4.45,4.45,0,0,1,412.189,104.459Z" transform="translate(-283.141 -36.227)" fill="#1c6836"/>
        <path id="Path_32742" data-name="Path 32742" d="M35.45,104.459A4.45,4.45,0,0,1,31,100.01a66.312,66.312,0,0,1,19.55-47.2A4.45,4.45,0,0,1,56.843,59.1,57.472,57.472,0,0,0,39.9,100.01,4.45,4.45,0,0,1,35.45,104.459Z" transform="translate(-31 -36.227)" fill="#60aa3e"/>
      </g>
    </g>
  </g>
</svg>
