<svg xmlns="http://www.w3.org/2000/svg" width="50.007" height="52.448" viewBox="0 0 50.007 52.448">
  <g id="Group_68072" data-name="Group 68072" transform="translate(-11.913)">
    <g id="Group_68071" data-name="Group 68071" transform="translate(11.913)">
      <path id="Path_32907" data-name="Path 32907" d="M232.906,0h-7.761l-.571.509h-4.854L219.2,0h-7.761a1.491,1.491,0,0,0-1.486,1.486V22.953a1.491,1.491,0,0,0,1.486,1.487h21.467a1.491,1.491,0,0,0,1.486-1.487V1.486A1.491,1.491,0,0,0,232.906,0Z" transform="translate(-189.665)" fill="#fbc481"/>
      <path id="Path_32908" data-name="Path 32908" d="M215.245,22.953V1.486A1.491,1.491,0,0,1,216.731,0h-5.293a1.491,1.491,0,0,0-1.486,1.486V22.953a1.491,1.491,0,0,0,1.486,1.487h5.293A1.491,1.491,0,0,1,215.245,22.953Z" transform="translate(-189.665 0)" fill="#dd9973"/>
      <path id="Path_32909" data-name="Path 32909" d="M300.23,0V9.411a.52.52,0,0,0,.8.435l1.883-1.232a.52.52,0,0,1,.569,0l1.883,1.232a.52.52,0,0,0,.8-.435V0Z" transform="translate(-270.696)" fill="#d6865f"/>
      <g id="Group_68067" data-name="Group 68067" transform="translate(29.534)">
        <path id="Path_32910" data-name="Path 32910" d="M303.2,0H300.23V9.411a.52.52,0,0,0,.8.435l1.883-1.232a.519.519,0,0,1,.285-.085Z" transform="translate(-300.23)" fill="#b97359"/>
      </g>
      <path id="Path_32911" data-name="Path 32911" d="M246.885,130.706h-5.37a1.377,1.377,0,0,0-1.377,1.377v5.469a1.378,1.378,0,0,0,1.377,1.378h5.37a1.377,1.377,0,0,0,1.377-1.378v-5.469A1.377,1.377,0,0,0,246.885,130.706Z" transform="translate(-216.759 -117.317)" fill="#ffeddc"/>
      <path id="Path_32912" data-name="Path 32912" d="M244.2,137.551v-5.469a1.377,1.377,0,0,1,1.377-1.377h-4.062a1.377,1.377,0,0,0-1.377,1.377v5.469a1.377,1.377,0,0,0,1.377,1.377h4.062A1.377,1.377,0,0,1,244.2,137.551Z" transform="translate(-216.76 -117.316)" fill="#fcd5ac"/>
      <path id="Path_32913" data-name="Path 32913" d="M385.567,270.686a2.59,2.59,0,0,0-3.644.642l-4.769,6.876a1.474,1.474,0,0,1-.212.241l-.151.125.277.277h1.282l8.091-5.221.233-.493A3,3,0,0,0,385.567,270.686Z" transform="translate(-339.414 -242.522)" fill="#ffcebe"/>
      <path id="Path_32914" data-name="Path 32914" d="M384.913,271.329a2.63,2.63,0,0,1,.642-.65,2.59,2.59,0,0,0-3.632.65l-4.769,6.876a1.473,1.473,0,0,1-.212.241l-.151.125.277.277h1.282l2.442-1.576Z" transform="translate(-339.414 -242.524)" fill="#ffb1a0"/>
      <path id="Path_32915" data-name="Path 32915" d="M159.783,277.781a2.624,2.624,0,0,0-3.7-.7l-6.759,4.762a1.535,1.535,0,0,1-1.036.273l-4.946-.493a.03.03,0,0,1,0-.06,2.86,2.86,0,0,0-.019-5.656L131.7,274.132a5.146,5.146,0,0,0-3.741.879l-6.209,4.375-.342,1.228,6.156,8.815h1.3a16.262,16.262,0,0,1,8.274-2.148l10.471.128a8.372,8.372,0,0,0,5.029-1.524l6.416-4.52a2.633,2.633,0,0,0,.727-3.584Z" transform="translate(-110.193 -245.998)" fill="#ffdecf"/>
      <g id="Group_68068" data-name="Group 68068" transform="translate(11.216 28.075)">
        <path id="Path_32916" data-name="Path 32916" d="M127.467,281.21a1.539,1.539,0,0,1,.375-2.14l5.76-4.059a5.122,5.122,0,0,1,.807-.464l-2.71-.414a5.146,5.146,0,0,0-3.741.879l-6.209,4.375-.342,1.228,6.156,8.816h1.3a16.287,16.287,0,0,1,3.338-1.441Z" transform="translate(-121.408 -274.074)" fill="#ffcebe"/>
      </g>
      <g id="Group_68069" data-name="Group 68069" transform="translate(24.989 18.034)">
        <path id="Path_32917" data-name="Path 32917" d="M259.973,177.633h-3.321a.791.791,0,1,1,0-1.583h3.321a.791.791,0,1,1,0,1.583Z" transform="translate(-255.861 -176.05)" fill="#d6865f"/>
      </g>
      <g id="Group_68070" data-name="Group 68070" transform="translate(24.989 15.385)">
        <path id="Path_32918" data-name="Path 32918" d="M259.973,151.774h-3.321a.791.791,0,1,1,0-1.583h3.321a.791.791,0,1,1,0,1.583Z" transform="translate(-255.861 -150.191)" fill="#d6865f"/>
      </g>
      <path id="Path_32919" data-name="Path 32919" d="M280.947,329.877l4.912.392a.028.028,0,0,1,.023-.036,2.885,2.885,0,0,0,2.031-1.386l-.039-.005-6.8-.543a.791.791,0,1,0-.126,1.578Z" transform="translate(-252.734 -294.667)" fill="#ffcebe"/>
      <path id="Path_32920" data-name="Path 32920" d="M89.527,323.338l-8.6-12.14a1.182,1.182,0,0,0-1.65-.271L76.77,312.7v1.077l9.11,12.593.846.387,2.508-1.777A1.182,1.182,0,0,0,89.527,323.338Z" transform="translate(-70.126 -278.878)" fill="#dbedff"/>
      <path id="Path_32921" data-name="Path 32921" d="M82.186,312.974,80.928,311.2a1.182,1.182,0,0,0-1.65-.271L76.77,312.7v1.077l1.449,2Z" transform="translate(-70.126 -278.879)" fill="#b5dcff"/>
      <path id="Path_32922" data-name="Path 32922" d="M18.557,330.21l-6.122,4.336a1.2,1.2,0,0,0-.312,1.66l8.6,12.14a1.2,1.2,0,0,0,1.669.257l6.122-4.336Z" transform="translate(-11.913 -296.384)" fill="#7fb3fa"/>
      <path id="Path_32923" data-name="Path 32923" d="M16.953,336.891a1.3,1.3,0,0,1,.461-1.766l3.079-2.181-1.936-2.734-6.122,4.336a1.2,1.2,0,0,0-.312,1.66l8.6,12.14a1.2,1.2,0,0,0,1.669.257l1.9-1.347Z" transform="translate(-11.913 -296.384)" fill="#64a6f4"/>
    </g>
  </g>
</svg>
