<svg xmlns="http://www.w3.org/2000/svg" width="45" height="45" viewBox="0 0 45 45">
  <g id="tw" transform="translate(-366.5 599)">
    <g id="Group_26593" data-name="Group 26593" transform="translate(365.5 -599.164)">
      <g id="Group_67626" data-name="Group 67626">
        <rect id="Rectangle_15" data-name="Rectangle 15" width="45" height="45" rx="22.5" transform="translate(1 0.165)" fill="#009fee"/>
        <g id="Group_67631" data-name="Group 67631" transform="translate(11 -34.836)">
          <path id="Path_32701" data-name="Path 32701" d="M24.5,50.356a10.47,10.47,0,0,1-2.894.793,4.994,4.994,0,0,0,2.209-2.776,10.036,10.036,0,0,1-3.184,1.216,5.022,5.022,0,0,0-8.687,3.434,5.171,5.171,0,0,0,.116,1.145A14.215,14.215,0,0,1,1.706,48.916a5.023,5.023,0,0,0,1.543,6.712A4.959,4.959,0,0,1,.98,55.009v.055A5.045,5.045,0,0,0,5,60a5.012,5.012,0,0,1-1.317.165,4.44,4.44,0,0,1-.951-.086,5.07,5.07,0,0,0,4.693,3.5A10.091,10.091,0,0,1,1.2,65.718,9.4,9.4,0,0,1,0,65.649,14.138,14.138,0,0,0,7.7,67.9,14.2,14.2,0,0,0,22,53.613c0-.222-.008-.436-.018-.649A10.018,10.018,0,0,0,24.5,50.356Z" fill="#fff"/>
        </g>
      </g>
    </g>
  </g>
</svg>
