<svg id="Group_26690" data-name="Group 26690" xmlns="http://www.w3.org/2000/svg" width="39.392" height="11.943" viewBox="0 0 39.392 11.943">
  <g id="visa_18_" data-name="visa(18)" transform="translate(0 0)">
    <path id="Path_18838" data-name="Path 18838" d="M184.8,191.655l2-11.255h3.126l-1.938,11.255Z" transform="translate(-170.356 -180.025)" fill="#3c58bf"/>
    <path id="Path_18839" data-name="Path 18839" d="M184.8,191.655l2.564-11.255h2.564l-1.938,11.255Z" transform="translate(-170.356 -180.025)" fill="#293688"/>
    <path id="Path_18840" data-name="Path 18840" d="M257.566,176.1a7.93,7.93,0,0,0-2.876-.5c-3.126,0-5.377,1.563-5.377,3.814,0,1.688,1.563,2.564,2.814,3.126s1.626.938,1.626,1.438c0,.75-1,1.125-1.876,1.125a6.8,6.8,0,0,1-3-.625l-.438-.188L248,186.855a10.139,10.139,0,0,0,3.564.625c3.314,0,5.5-1.563,5.5-3.939,0-1.313-.813-2.314-2.689-3.126-1.125-.563-1.813-.875-1.813-1.438,0-.5.563-1,1.813-1a5.735,5.735,0,0,1,2.376.438l.313.125.5-2.439Z" transform="translate(-228.617 -175.6)" fill="#3c58bf"/>
    <path id="Path_18841" data-name="Path 18841" d="M257.566,176.1a7.93,7.93,0,0,0-2.876-.5c-3.126,0-4.815,1.563-4.815,3.814a3.268,3.268,0,0,0,2.251,3.126c1.251.563,1.626.938,1.626,1.438,0,.75-1,1.125-1.876,1.125a6.8,6.8,0,0,1-3-.625l-.438-.188L248,186.855a10.139,10.139,0,0,0,3.564.625c3.314,0,5.5-1.563,5.5-3.939,0-1.313-.813-2.314-2.689-3.126-1.125-.563-1.813-.875-1.813-1.438,0-.5.563-1,1.813-1a5.735,5.735,0,0,1,2.376.438l.313.125.5-2.439Z" transform="translate(-228.617 -175.6)" fill="#293688"/>
    <path id="Path_18842" data-name="Path 18842" d="M364.715,180.4c-.75,0-1.313.063-1.626.813L358.4,191.655h3.376l.625-1.876h4l.375,1.876h3L367.154,180.4Zm-1.438,7.5c.188-.563,1.251-3.314,1.251-3.314s.25-.688.438-1.125l.188,1.063s.625,2.814.75,3.439h-2.626Z" transform="translate(-330.388 -180.025)" fill="#3c58bf"/>
    <path id="Path_18843" data-name="Path 18843" d="M365.466,180.4c-.75,0-1.313.063-1.626.813l-5.44,10.442h3.376l.625-1.876h4l.375,1.876h3L367.154,180.4Zm-2.188,7.5c.25-.625,1.251-3.314,1.251-3.314s.25-.688.438-1.125l.188,1.063s.625,2.814.75,3.439h-2.626Z" transform="translate(-330.388 -180.025)" fill="#293688"/>
    <path id="Path_18844" data-name="Path 18844" d="M55.89,189.016l-.313-1.626a9.064,9.064,0,0,0-4.377-4.94l2.814,10H57.39L62.455,181.2H59.078Z" transform="translate(-47.198 -180.762)" fill="#3c58bf"/>
    <path id="Path_18845" data-name="Path 18845" d="M55.89,189.016l-.313-1.626a9.064,9.064,0,0,0-4.377-4.94l2.814,10H57.39L62.455,181.2H59.7Z" transform="translate(-47.198 -180.762)" fill="#293688"/>
    <path id="Path_18846" data-name="Path 18846" d="M0,180.4l.563.125c4,.938,6.753,3.314,7.816,6.128l-1.125-5.315c-.188-.75-.75-.938-1.438-.938Z" transform="translate(0 -180.025)" fill="#ffbc00"/>
    <path id="Path_18847" data-name="Path 18847" d="M0,180.4H0c4,.938,7.316,3.376,8.379,6.19l-1.063-4.439a1.526,1.526,0,0,0-1.5-1.188Z" transform="translate(0 -180.025)" fill="#f7981d"/>
    <path id="Path_18848" data-name="Path 18848" d="M0,180.4H0c4,.938,7.316,3.376,8.379,6.19l-.75-2.439a2.205,2.205,0,0,0-1.313-1.813Z" transform="translate(0 -180.025)" fill="#ed7c00"/>
    <g id="Group_26689" data-name="Group 26689" transform="translate(4.064 1.626)">
      <path id="Path_18849" data-name="Path 18849" d="M59.753,202.653l-2.126-2.126-1,2.376-.25-1.563A9.064,9.064,0,0,0,52,196.4l2.814,10H58.19Z" transform="translate(-52 -196.4)" fill="#051244"/>
      <path id="Path_18850" data-name="Path 18850" d="M187.989,291.951,185.3,289.2l-.5,2.751Z" transform="translate(-174.42 -281.947)" fill="#051244"/>
      <path id="Path_18851" data-name="Path 18851" d="M253.44,274.8h0c.25.25.375.438.313.688,0,.75-1,1.125-1.876,1.125a6.8,6.8,0,0,1-3-.625l-.438-.188L248,278.364a10.138,10.138,0,0,0,3.564.625,6.191,6.191,0,0,0,4.564-1.563Z" transform="translate(-232.681 -268.672)" fill="#051244"/>
      <path id="Path_18852" data-name="Path 18852" d="M364,227.791h2.939l.625-1.876h4l.375,1.876h3l-1.063-4.564-3.752-3.627.188,1s.625,2.814.75,3.439h-2.626c.25-.625,1.251-3.314,1.251-3.314s.25-.688.438-1.126" transform="translate(-339.615 -217.787)" fill="#051244"/>
    </g>
  </g>
</svg>
