<svg xmlns="http://www.w3.org/2000/svg" width="261.493" height="72.699" viewBox="0 0 261.493 72.699">
  <g id="Group_67650" data-name="Group 67650" transform="translate(53.75 -155.395)">
    <g id="Group_3" data-name="Group 3" transform="translate(36.484 167.394)">
      <g id="Group_2" data-name="Group 2" transform="translate(0 0)">
        <path id="Path_1" data-name="Path 1" d="M13.254-33.3c7.355,0,11.423-3.657,11.423-9.163,0-10.19-15.491-7.643-15.491-11.012,0-1.192.9-1.89,2.958-1.89a12.708,12.708,0,0,1,8.012,2.876l3.862-5.3a16.718,16.718,0,0,0-11.135-3.821C5.858-61.607,2-57.5,2-52.9c0,10.56,15.491,7.56,15.491,11.176,0,1.356-1.479,2.178-3.862,2.178a12.409,12.409,0,0,1-8.793-3.616L1.092-37.652C3.845-35.064,7.707-33.3,13.254-33.3Zm24.078,0c3.041,0,6.328-.863,8.3-2.63l-2.753-4.15a8.259,8.259,0,0,1-4.849,1.685c-2.876,0-4.52-1.479-4.972-3.246H47.194v-1.438c0-6.739-4.273-11.053-10.149-11.053a10.208,10.208,0,0,0-10.519,10.4C26.526-37.282,31.21-33.3,37.332-33.3Zm3.821-12.655H32.977c.247-1.438,1.315-3.082,4.068-3.082C39.962-49.034,40.989-47.349,41.154-45.952ZM59.849-33.3c3.041,0,6.328-.863,8.3-2.63L65.4-40.076a8.259,8.259,0,0,1-4.848,1.685c-2.876,0-4.52-1.479-4.972-3.246H69.711v-1.438c0-6.739-4.273-11.053-10.149-11.053a10.208,10.208,0,0,0-10.519,10.4C49.043-37.282,53.727-33.3,59.849-33.3ZM63.67-45.952H55.494c.247-1.438,1.315-3.082,4.068-3.082C62.479-49.034,63.506-47.349,63.67-45.952Zm28.8,12.162V-61.2H86.187v9.9a7.316,7.316,0,0,0-5.876-2.835c-4.972,0-8.752,3.9-8.752,10.4,0,6.739,3.862,10.437,8.752,10.437a7.58,7.58,0,0,0,5.876-2.794v2.3Zm-10.108-5.1c-2.506,0-4.355-1.89-4.355-4.848s1.849-4.807,4.355-4.807a5.172,5.172,0,0,1,3.821,1.767v6.081A5.212,5.212,0,0,1,82.366-38.885ZM106.65-33.3c3.041,0,6.328-.863,8.3-2.63l-2.753-4.15a8.259,8.259,0,0,1-4.849,1.685c-2.876,0-4.52-1.479-4.972-3.246h14.135v-1.438c0-6.739-4.273-11.053-10.149-11.053a10.208,10.208,0,0,0-10.519,10.4C95.843-37.282,100.527-33.3,106.65-33.3Zm3.821-12.655h-8.177c.247-1.438,1.315-3.082,4.068-3.082C109.279-49.034,110.306-47.349,110.471-45.952ZM127.276-33.3c5.67,0,9-2.712,9-6.492,0-8.136-11.5-5.876-11.5-8.053,0-.781.986-1.356,2.465-1.356a8.871,8.871,0,0,1,5.835,2.178l2.424-4.479a13.881,13.881,0,0,0-8.3-2.63c-5.465,0-8.505,3.041-8.505,6.533,0,8.053,11.546,5.506,11.546,7.971,0,.863-.781,1.4-2.671,1.4a12.409,12.409,0,0,1-6.985-2.671l-2.63,4.52C120.045-34.488,123.7-33.3,127.276-33.3Zm19.764,0c2.342,0,3.9-.575,4.684-1.315l-1.233-4.766a2.459,2.459,0,0,1-1.6.493,1.793,1.793,0,0,1-1.726-2.013v-7.273h4.027v-5.465h-4.027v-5.424h-6.328v5.424h-3.287v5.465h3.287v9.04C140.836-35.31,143.013-33.3,147.04-33.3Zm25.311-.493V-46.2c0-6.163-4.479-7.93-9.245-7.93a14,14,0,0,0-9,3.082l2.342,4.4A8.683,8.683,0,0,1,162-48.787c2.547,0,4.027,1.192,4.027,2.917V-43.9c-1.192-1.479-3.534-2.342-6.163-2.342-3.041,0-6.821,1.6-6.821,6.41A6.578,6.578,0,0,0,159.86-33.3a8.2,8.2,0,0,0,6.163-2.465v1.972Zm-9.861-3.657c-1.644,0-3.164-.74-3.164-2.3s1.52-2.3,3.164-2.3a4.381,4.381,0,0,1,3.534,1.4v1.767A4.4,4.4,0,0,1,162.489-37.447Z" transform="translate(-1.092 61.607)" fill="#1c6836"/>
        <path id="Path_2" data-name="Path 2" d="M3.233-10.412v-3.35H5.572A2.476,2.476,0,0,0,8.215-16.3a2.469,2.469,0,0,0-2.642-2.541H2.184v8.433ZM5.446-14.7H3.233v-3.211H5.446A1.567,1.567,0,0,1,7.127-16.3,1.567,1.567,0,0,1,5.446-14.7Zm10.885,4.286v-8.433h-.948v8.433Zm12.478,0v-4.2c0-1.479-1.062-2.061-2.364-2.061a3.2,3.2,0,0,0-2.44,1.011l.443.657a2.385,2.385,0,0,1,1.871-.847c.885,0,1.542.468,1.542,1.277v1.1a2.586,2.586,0,0,0-2.023-.822,1.982,1.982,0,0,0-2.124,2.01,2.03,2.03,0,0,0,2.124,2.023,2.623,2.623,0,0,0,2.023-.847v.7Zm-2.617-.531a1.375,1.375,0,0,1-1.517-1.34,1.373,1.373,0,0,1,1.517-1.327,2.064,2.064,0,0,1,1.669.746V-11.7A2.037,2.037,0,0,1,26.193-10.943Zm15.412.531V-14.7A1.732,1.732,0,0,0,39.67-16.67a2.988,2.988,0,0,0-2.187,1.037v-.885h-.948v6.106h.948v-4.463a2.379,2.379,0,0,1,1.808-.948c.822,0,1.378.329,1.378,1.416v4Zm9.28.152a1.538,1.538,0,0,0,1.125-.392l-.278-.721a.9.9,0,0,1-.645.265c-.4,0-.607-.329-.607-.784v-3.793h1.239v-.834H50.479v-1.669h-.961v1.669H48.507v.834h1.011v4A1.253,1.253,0,0,0,50.884-10.26Zm20.608-.152v-3.565L74.8-18.845H73.578l-2.617,3.919-2.617-3.919H67.117l3.325,4.867v3.565Zm11.252.152a3.006,3.006,0,0,0,3.022-3.211,3,3,0,0,0-3.022-3.2,3,3,0,0,0-3.022,3.2A3.006,3.006,0,0,0,82.744-10.26Zm0-.847a2.127,2.127,0,0,1-2.023-2.364,2.123,2.123,0,0,1,2.023-2.352,2.123,2.123,0,0,1,2.023,2.352A2.127,2.127,0,0,1,82.744-11.108Zm15.449.7v-6.106h-.948v4.488a2.331,2.331,0,0,1-1.8.923c-.834,0-1.378-.316-1.378-1.391v-4.02h-.948v4.311A1.723,1.723,0,0,0,95.07-10.26a2.987,2.987,0,0,0,2.175-1.011v.86Zm8.66,0v-4.324a2.236,2.236,0,0,1,1.669-.973,3.132,3.132,0,0,1,.367.025v-.973a2.631,2.631,0,0,0-2.035,1.113v-.973h-.948v6.106Zm20.9.152c2.276,0,3.11-1.264,3.11-2.478,0-3.148-4.994-2.061-4.994-3.957,0-.8.733-1.34,1.732-1.34a3.182,3.182,0,0,1,2.44,1.011l.632-.771a3.963,3.963,0,0,0-2.984-1.188c-1.669,0-2.908.961-2.908,2.352,0,3.009,4.994,1.8,4.994,3.97,0,.657-.48,1.467-1.985,1.467a3.478,3.478,0,0,1-2.642-1.214l-.632.809A4.2,4.2,0,0,0,127.752-10.26Zm13.224,0a3.368,3.368,0,0,0,2.427-.948l-.455-.619a2.658,2.658,0,0,1-1.9.784,2.141,2.141,0,0,1-2.187-2.111H143.8v-.24a2.966,2.966,0,0,0-2.933-3.274,3.054,3.054,0,0,0-3.009,3.2A3.031,3.031,0,0,0,140.976-10.26Zm1.884-3.6h-4.008a2.035,2.035,0,0,1,2-2.023A1.976,1.976,0,0,1,142.86-13.864Zm11.05,3.6a3.368,3.368,0,0,0,2.427-.948l-.455-.619a2.657,2.657,0,0,1-1.9.784,2.141,2.141,0,0,1-2.187-2.111h4.931v-.24A2.966,2.966,0,0,0,153.8-16.67a3.054,3.054,0,0,0-3.009,3.2A3.031,3.031,0,0,0,153.91-10.26Zm1.884-3.6h-4.008a2.035,2.035,0,0,1,2-2.023A1.976,1.976,0,0,1,155.794-13.864Zm13.654,3.451v-8.433H168.5V-15.6a2.553,2.553,0,0,0-2.061-1.075c-1.593,0-2.718,1.252-2.718,3.211,0,1.985,1.125,3.2,2.718,3.2a2.571,2.571,0,0,0,2.061-1.062v.91Zm-2.769-.7c-1.239,0-1.972-1-1.972-2.352s.733-2.364,1.972-2.364a2.268,2.268,0,0,1,1.821.986v2.756A2.258,2.258,0,0,1,166.679-11.108Z" transform="translate(1.018 57.645)" fill="#54555b"/>
      </g>
    </g>
    <g id="_Group_" data-name="&lt;Group&gt;" transform="translate(-53.75 155.395)">
      <g id="_Group_2" data-name="&lt;Group&gt;">
        <path id="_Path_" data-name="&lt;Path&gt;" d="M377.905,316.327A36.336,36.336,0,1,1,312.963,293.9a34.489,34.489,0,0,0,18.248,52.061,25.82,25.82,0,0,1,6.364-2.032q.613-6.9,0-9.891c-.268-1.342-.613-3.565-2.8-4.524-1.572-.69-6.709-3.642-5.214-11.884q1.764,6.786,5.252,7.706c.537.153.307-1.84-1.15-3.374q5.559-.805,8.051,11.041,2.454-11.846,8.012-11.041c-1.457,1.533-1.687,3.527-1.15,3.374q3.489-.92,5.252-7.706c1.5,8.242-3.642,11.194-5.214,11.884-2.185.958-2.53,3.182-2.8,4.524q-.613,2.99,0,9.891a24.358,24.358,0,0,1,6.249,1.993A34.506,34.506,0,0,0,370.161,293.9,36.278,36.278,0,0,1,377.905,316.327Z" transform="translate(-305.231 -279.984)" fill="#1c6836"/>
        <path id="_Path_2" data-name="&lt;Path&gt;" d="M313.659,292.064a33.112,33.112,0,1,1,66.169,0,33.109,33.109,0,0,0-66.169,0Z" transform="translate(-310.413 -257.6)" fill="#1c6836"/>
      </g>
      <path id="_Path_3" data-name="&lt;Path&gt;" d="M347.332,310.374a4.664,4.664,0,0,1,1.648,3.3c-2.99.345-4.792-3.834-3.374-6.671,2.377,2.722,6.134,3.029,4.255,6.287C349.862,312.252,348.942,311.179,347.332,310.374Z" transform="translate(-329.824 -288.062)" fill="#60aa3e"/>
      <path id="_Path_4" data-name="&lt;Path&gt;" d="M356.672,293.237a3.49,3.49,0,0,1,.038,2.569c-1.917-.5-2.07-3.642.077-5.405-.115,2.147,2.99,3.757.843,5.367A4.168,4.168,0,0,0,356.672,293.237Z" transform="translate(-336.059 -277.826)" fill="#60aa3e"/>
      <path id="_Path_5" data-name="&lt;Path&gt;" d="M369.533,282.317a2.772,2.772,0,0,1-.46,2.185c-1.418-.958-.537-3.259,1.342-4.1-.69,1.342.843,3.719-.958,4.217A3.139,3.139,0,0,0,369.533,282.317Z" transform="translate(-344.167 -271.659)" fill="#60aa3e"/>
      <path id="_Path_6" data-name="&lt;Path&gt;" d="M393.109,283.847c-3.029-.69.23-4.677-.115-6.747,2.914,2.262,3.029,5.559,1.15,6.632a4.224,4.224,0,0,1-.537-3.259A5.076,5.076,0,0,0,393.109,283.847Z" transform="translate(-358.618 -269.624)" fill="#60aa3e"/>
      <path id="_Path_7" data-name="&lt;Path&gt;" d="M352.964,355.712c-1.725,2.607-4.294-1.84-6.364-2.262,3.144-1.955,6.249-.882,6.594,1.265a4.187,4.187,0,0,1-3.22-.652A5.107,5.107,0,0,0,352.964,355.712Z" transform="translate(-330.741 -316.072)" fill="#60aa3e"/>
      <path id="_Path_8" data-name="&lt;Path&gt;" d="M409.423,289.1c-1.8-.5-.307-2.837-.805-4.1,1.917.843,2.645,3.259,1.188,3.987a4,4,0,0,1-.268-2.109A4.018,4.018,0,0,0,409.423,289.1Z" transform="translate(-368.913 -274.496)" fill="#60aa3e"/>
      <path id="_Path_9" data-name="&lt;Path&gt;" d="M456.6,371.9c.805-1.725,2.837.115,4.217-.192-1.15,1.764-3.642,2.109-4.179.575a4.509,4.509,0,0,1,2.147.038A4,4,0,0,0,456.6,371.9Z" transform="translate(-398.571 -327.618)" fill="#60aa3e"/>
      <path id="_Path_10" data-name="&lt;Path&gt;" d="M462.865,336.1c-.805-1.725,1.955-2.07,2.607-3.3.575,2.032-.767,4.14-2.3,3.527.153-.537.728-.958,1.457-1.61a4.248,4.248,0,0,0-1.763,1.38Z" transform="translate(-402.344 -303.971)" fill="#60aa3e"/>
      <path id="_Path_11" data-name="&lt;Path&gt;" d="M448.942,305.574c-.843-1.725,1.878-2.108,2.492-3.374.652,1.993-.652,4.14-2.185,3.565.153-.5.69-.958,1.418-1.61A3.975,3.975,0,0,0,448.942,305.574Z" transform="translate(-393.749 -285.102)" fill="#60aa3e"/>
      <path id="_Path_12" data-name="&lt;Path&gt;" d="M399.409,331.464c-1.38-1.265,1-2.684,1.112-4.064,1.342,1.61.92,4.1-.69,4.14a4.2,4.2,0,0,1,.69-2.032A4.2,4.2,0,0,0,399.409,331.464Z" transform="translate(-363.04 -300.641)" fill="#60aa3e"/>
      <path id="_Path_13" data-name="&lt;Path&gt;" d="M424.786,281.524c-1.8-.92.23-3.067-.077-4.524,1.84,1.265,2.185,3.949.5,4.485a3.154,3.154,0,0,0,.115-2.339A4.613,4.613,0,0,1,424.786,281.524Z" transform="translate(-378.488 -269.563)" fill="#60aa3e"/>
      <path id="_Path_14" data-name="&lt;Path&gt;" d="M439.12,342.864c-.882-3.182,3.68-2.108,5.405-4.064.23,3.8-2.722,5.52-4.754,4.485.153-.69,1-1.457,2.339-1.955A5.224,5.224,0,0,0,439.12,342.864Z" transform="translate(-387.723 -307.671)" fill="#60aa3e"/>
      <path id="_Path_15" data-name="&lt;Path&gt;" d="M450.779,324.227c-2.032-2.607,2.607-3.374,3.412-5.827,1.648,3.412-.383,6.134-2.645,5.98a3.331,3.331,0,0,1,1.38-2.722A4.959,4.959,0,0,0,450.779,324.227Z" transform="translate(-394.667 -295.091)" fill="#60aa3e"/>
      <path id="_Path_16" data-name="&lt;Path&gt;" d="M437.7,374.718c1.993-2.645,3.91,1.648,6.517,1.8-2.875,2.492-6.019,1.188-6.441-1.035a3.339,3.339,0,0,1,2.952.652A5.043,5.043,0,0,0,437.7,374.718Z" transform="translate(-386.916 -329.29)" fill="#60aa3e"/>
      <path id="_Path_17" data-name="&lt;Path&gt;" d="M325.532,345.246c-1.725,2.837-4.064-1.227-6.632-1.15,2.607-2.76,5.865-1.763,6.517.422a3.353,3.353,0,0,1-3.029-.383,4.862,4.862,0,0,0,3.144,1.112Z" transform="translate(-313.66 -309.9)" fill="#60aa3e"/>
      <path id="_Path_18" data-name="&lt;Path&gt;" d="M356.982,377.061c1.917,2.684-2.76,3.22-3.68,5.635-1.5-3.45.652-6.1,2.914-5.827.115.728-.422,1.725-1.533,2.645A5.06,5.06,0,0,0,356.982,377.061Z" transform="translate(-334.567 -331.134)" fill="#60aa3e"/>
      <path id="_Path_19" data-name="&lt;Path&gt;" d="M372.057,343.025a3.974,3.974,0,0,1-1.84-2.3,4.215,4.215,0,0,0,1.457,2.684c-2.645,1.418-2.147-3.029-3.374-4.332C370.485,338.885,373.169,340.61,372.057,343.025Z" transform="translate(-344.122 -307.832)" fill="#60aa3e"/>
      <path id="_Path_20" data-name="&lt;Path&gt;" d="M444.474,362.2c-2.224-1.15-5.6,1.342-5.674-1.879a3.873,3.873,0,0,0,3.105.5,3.837,3.837,0,0,1-2.837-1.035c1.994-1.725,4.907.038,5.405,2.415Z" transform="translate(-387.595 -320.186)" fill="#60aa3e"/>
      <path id="_Path_21" data-name="&lt;Path&gt;" d="M414.889,298.4c-2.147,3.719,1.572,9.546-3.182,9.7a6.432,6.432,0,0,0,.613-5.405,6.485,6.485,0,0,1-1.993,4.754C407.528,303.882,410.825,299.052,414.889,298.4Z" transform="translate(-369.395 -282.759)" fill="#60aa3e"/>
      <path id="_Path_22" data-name="&lt;Path&gt;" d="M464.4,352.456c-4.14-1.342-9.047,3.527-10.2-1.112a6.615,6.615,0,0,0,5.444-.5,6.654,6.654,0,0,1-5.06-.958C457.459,346.4,462.864,348.583,464.4,352.456Z" transform="translate(-397.091 -313.429)" fill="#60aa3e"/>
      <path id="_Path_23" data-name="&lt;Path&gt;" d="M424.369,322.616c-.192-2.377,1.457-4.14,3.259-5.674a8.063,8.063,0,0,0-4.754,4.907c-3.642-4.792,4.984-5.789,6.939-10.849C432.419,315.562,430.081,322.539,424.369,322.616Z" transform="translate(-377.227 -290.528)" fill="#60aa3e"/>
      <path id="_Path_24" data-name="&lt;Path&gt;" d="M332.74,321.5c3.8,3.872,12,1.457,10.543,7.284a8.029,8.029,0,0,0-6.172-2.684c2.147.805,4.025,1.917,5.022,4.064C336.842,332.311,332.242,326.79,332.74,321.5Z" transform="translate(-322.172 -297.003)" fill="#60aa3e"/>
      <path id="_Path_25" data-name="&lt;Path&gt;" d="M364.7,325.532a2.246,2.246,0,0,1,1.035,1.764c-1.5-.345-2.914-.805-2.108-3.8.728,1.572,3.412,1.3,2.492,3.45A2.029,2.029,0,0,0,364.7,325.532Z" transform="translate(-341.095 -298.236)" fill="#60aa3e"/>
      <path id="_Path_26" data-name="&lt;Path&gt;" d="M397.449,309.212c-2.377-1.112.422-3.527.153-5.712,2.645,3.412,1.342,3.8.5,5.75a3.884,3.884,0,0,1-.153-2.722A3.08,3.08,0,0,0,397.449,309.212Z" transform="translate(-361.501 -285.904)" fill="#60aa3e"/>
      <path id="_Path_27" data-name="&lt;Path&gt;" d="M409.052,336.952c-1.84-1.917,1.687-3.144,2.185-5.252,1.265,4.14-.115,4.025-1.648,5.559a3.994,3.994,0,0,1,.882-2.607A3.01,3.01,0,0,0,409.052,336.952Z" transform="translate(-368.925 -303.293)" fill="#60aa3e"/>
      <path id="_Path_28" data-name="&lt;Path&gt;" d="M387.467,353.492c-2.607.422-1.649-3.182-3.067-4.792,4.1,1.3,3.22,2.377,3.6,4.485A4.3,4.3,0,0,1,386.355,351,3.175,3.175,0,0,0,387.467,353.492Z" transform="translate(-354.05 -313.775)" fill="#60aa3e"/>
      <path id="_Path_29" data-name="&lt;Path&gt;" d="M401.041,351.782c-2.032-1.687,1.265-3.335,1.5-5.482,1.8,3.91.422,3.987-.882,5.674a3.923,3.923,0,0,1,.5-2.684A3.162,3.162,0,0,0,401.041,351.782Z" transform="translate(-363.905 -312.296)" fill="#60aa3e"/>
      <path id="_Path_30" data-name="&lt;Path&gt;" d="M385.071,330.732c-2.952-1.764,1.112-3.949,1.112-6.632,2.492,2.032,2.185,5.865-.345,6.671a4.318,4.318,0,0,1,.422-3.182A3.63,3.63,0,0,0,385.071,330.732Z" transform="translate(-353.8 -298.606)" fill="#60aa3e"/>
      <path id="_Path_31" data-name="&lt;Path&gt;" d="M417.164,349.164c-1.112-2.262,2.53-2.032,3.412-4.064.882,2.415-.958,5.29-2.914,4.447-.038-.728.537-1.265,1.572-1.917A2.845,2.845,0,0,0,417.164,349.164Z" transform="translate(-374.124 -311.556)" fill="#60aa3e"/>
      <path id="_Path_32" data-name="&lt;Path&gt;" d="M372.472,303.028c-5.789-2.875,2.07-7.552,1.878-12.728,4.255,3.22,4.37,11.041-.383,12.8-.728-1.5-.345-3.6.613-6.134C372.932,298.772,372.05,300.766,372.472,303.028Z" transform="translate(-345.38 -277.764)" fill="#60aa3e"/>
      <path id="_Path_33" data-name="&lt;Path&gt;" d="M330.981,362.417c-.958,1.15-3.374.767-6.556-.383,2.07,1.649,4.179,2.415,6.287,1.955-1.8,6.019-8.741-2.339-12.613-1.419C321.244,358.238,328.221,357.318,330.981,362.417Z" transform="translate(-313.167 -320.093)" fill="#60aa3e"/>
      <path id="_Path_34" data-name="&lt;Path&gt;" d="M430.334,296.33c-1.457-1.993,2.032-2.684,2.837-4.83,1.265,2.415.153,5.712-2.147,5.214-.077-.805.383-1.5,1.3-2.454A3.213,3.213,0,0,0,430.334,296.33Z" transform="translate(-382.158 -278.504)" fill="#60aa3e"/>
    </g>
  </g>
</svg>
