<svg xmlns="http://www.w3.org/2000/svg" width="179.244" height="153.854" viewBox="0 0 179.244 153.854">
  <g id="Group_67651" data-name="Group 67651" transform="translate(-44.691 -77.089)">
    <g id="Group_3" data-name="Group 3" transform="translate(44.691 181.349)">
      <g id="Group_2" data-name="Group 2" transform="translate(0 0)">
        <path id="Path_1" data-name="Path 1" d="M13.821-31.977c7.7,0,11.955-3.827,11.955-9.59,0-10.665-16.213-8-16.213-11.525,0-1.247.946-1.978,3.1-1.978a13.3,13.3,0,0,1,8.386,3.01l4.042-5.548a17.5,17.5,0,0,0-11.654-4c-7.354,0-11.4,4.3-11.4,9.117,0,11.052,16.213,7.913,16.213,11.7,0,1.419-1.548,2.279-4.042,2.279a12.987,12.987,0,0,1-9.2-3.784L1.092-36.535C3.973-33.826,8.016-31.977,13.821-31.977Zm25.2,0c3.182,0,6.623-.9,8.687-2.752l-2.881-4.343a8.644,8.644,0,0,1-5.075,1.763c-3.01,0-4.731-1.548-5.2-3.4H49.343v-1.505c0-7.053-4.472-11.568-10.622-11.568A10.684,10.684,0,0,0,27.712-42.9C27.712-36.148,32.615-31.977,39.022-31.977Zm4-13.245H34.464c.258-1.505,1.376-3.225,4.257-3.225C41.775-48.448,42.85-46.684,43.022-45.222ZM62.589-31.977c3.182,0,6.623-.9,8.687-2.752l-2.881-4.343a8.644,8.644,0,0,1-5.075,1.763c-3.01,0-4.731-1.548-5.2-3.4H72.91v-1.505c0-7.053-4.472-11.568-10.622-11.568A10.684,10.684,0,0,0,51.279-42.9C51.279-36.148,56.181-31.977,62.589-31.977Zm4-13.245H58.03c.258-1.505,1.376-3.225,4.257-3.225C65.341-48.448,66.416-46.684,66.588-45.222ZM96.735-32.493V-61.177h-6.58v10.364a7.657,7.657,0,0,0-6.15-2.967c-5.2,0-9.16,4.085-9.16,10.88,0,7.053,4.042,10.923,9.16,10.923a7.934,7.934,0,0,0,6.15-2.924v2.408ZM86.156-37.825c-2.623,0-4.559-1.978-4.559-5.075s1.935-5.032,4.559-5.032a5.413,5.413,0,0,1,4,1.849v6.365A5.455,5.455,0,0,1,86.156-37.825Zm25.416,5.849c3.182,0,6.623-.9,8.687-2.752l-2.881-4.343a8.644,8.644,0,0,1-5.075,1.763c-3.01,0-4.731-1.548-5.2-3.4h14.794v-1.505c0-7.053-4.472-11.568-10.622-11.568A10.684,10.684,0,0,0,100.261-42.9C100.261-36.148,105.164-31.977,111.571-31.977Zm4-13.245h-8.558c.258-1.505,1.376-3.225,4.257-3.225C114.324-48.448,115.4-46.684,115.571-45.222ZM133.16-31.977c5.935,0,9.418-2.838,9.418-6.795,0-8.515-12.041-6.15-12.041-8.429,0-.817,1.032-1.419,2.58-1.419a9.284,9.284,0,0,1,6.107,2.279l2.537-4.688a14.528,14.528,0,0,0-8.687-2.752c-5.72,0-8.9,3.182-8.9,6.838,0,8.429,12.084,5.763,12.084,8.343,0,.9-.817,1.462-2.8,1.462a12.988,12.988,0,0,1-7.311-2.8L123.4-35.2C125.591-33.224,129.418-31.977,133.16-31.977Zm20.685,0c2.451,0,4.085-.6,4.9-1.376l-1.29-4.989a2.574,2.574,0,0,1-1.677.516,1.876,1.876,0,0,1-1.806-2.107v-7.612h4.214v-5.72h-4.214v-5.677h-6.623v5.677h-3.44v5.72h3.44v9.461C147.351-34.084,149.631-31.977,153.845-31.977Zm26.491-.516V-45.48c0-6.451-4.688-8.3-9.676-8.3a14.648,14.648,0,0,0-9.418,3.225l2.451,4.6A9.088,9.088,0,0,1,169.5-48.19c2.666,0,4.214,1.247,4.214,3.053v2.064c-1.247-1.548-3.7-2.451-6.451-2.451-3.182,0-7.139,1.677-7.139,6.709,0,4.645,3.956,6.838,7.139,6.838a8.579,8.579,0,0,0,6.451-2.58v2.064ZM170.015-36.32c-1.72,0-3.311-.774-3.311-2.408s1.591-2.408,3.311-2.408a4.585,4.585,0,0,1,3.7,1.462v1.849A4.61,4.61,0,0,1,170.015-36.32Z" transform="translate(-1.092 61.607)" fill="#1c6836"/>
        <path id="Path_2" data-name="Path 2" d="M3.282-10.013v-3.507H5.73A2.592,2.592,0,0,0,8.5-16.179a2.584,2.584,0,0,0-2.766-2.66H2.184v8.826ZM5.6-14.5H3.282v-3.361H5.6a1.64,1.64,0,0,1,1.76,1.681A1.64,1.64,0,0,1,5.6-14.5Zm11.393,4.486v-8.826H16v8.826Zm13.06,0v-4.393c0-1.548-1.112-2.157-2.474-2.157A3.346,3.346,0,0,0,25.023-15.5l.463.688a2.5,2.5,0,0,1,1.958-.887c.926,0,1.614.49,1.614,1.336v1.151a2.706,2.706,0,0,0-2.117-.86,2.075,2.075,0,0,0-2.223,2.1,2.125,2.125,0,0,0,2.223,2.117,2.745,2.745,0,0,0,2.117-.887v.728Zm-2.739-.556a1.439,1.439,0,0,1-1.588-1.4,1.437,1.437,0,0,1,1.588-1.389,2.16,2.16,0,0,1,1.747.781v1.217A2.132,2.132,0,0,1,27.312-10.568Zm16.13.556V-14.5a1.812,1.812,0,0,0-2.025-2.064,3.128,3.128,0,0,0-2.289,1.085V-16.4h-.992v6.391h.992v-4.671a2.49,2.49,0,0,1,1.892-.992c.86,0,1.442.344,1.442,1.482v4.181Zm9.712.159a1.61,1.61,0,0,0,1.178-.41l-.291-.754a.939.939,0,0,1-.675.278c-.423,0-.635-.344-.635-.82v-3.97h1.3V-16.4h-1.3V-18.15H51.726V-16.4H50.667v.873h1.059v4.181A1.311,1.311,0,0,0,53.155-9.854Zm21.569-.159v-3.731l3.467-5.094H76.907l-2.739,4.1-2.739-4.1H70.145l3.48,5.094v3.731ZM86.5-9.854a3.147,3.147,0,0,0,3.163-3.361A3.136,3.136,0,0,0,86.5-16.562a3.136,3.136,0,0,0-3.163,3.348A3.147,3.147,0,0,0,86.5-9.854Zm0-.887a2.226,2.226,0,0,1-2.117-2.474A2.222,2.222,0,0,1,86.5-15.676a2.222,2.222,0,0,1,2.117,2.461A2.226,2.226,0,0,1,86.5-10.74Zm16.17.728V-16.4h-.992v4.7a2.44,2.44,0,0,1-1.879.966c-.873,0-1.442-.331-1.442-1.456V-16.4h-.992v4.512A1.8,1.8,0,0,0,99.4-9.854a3.126,3.126,0,0,0,2.276-1.059v.9Zm9.064,0v-4.525a2.34,2.34,0,0,1,1.747-1.019,3.278,3.278,0,0,1,.384.026v-1.019a2.754,2.754,0,0,0-2.13,1.164V-16.4h-.992v6.391Zm21.873.159c2.382,0,3.255-1.323,3.255-2.594,0-3.295-5.227-2.157-5.227-4.142,0-.834.767-1.4,1.813-1.4A3.33,3.33,0,0,1,136-16.933l.662-.807a4.148,4.148,0,0,0-3.123-1.244c-1.747,0-3.043,1.006-3.043,2.461,0,3.149,5.227,1.879,5.227,4.155,0,.688-.5,1.535-2.077,1.535a3.64,3.64,0,0,1-2.766-1.27l-.662.847A4.391,4.391,0,0,0,133.607-9.854Zm13.841,0a3.525,3.525,0,0,0,2.541-.992l-.476-.648a2.781,2.781,0,0,1-1.985.82,2.24,2.24,0,0,1-2.289-2.21H150.4v-.251c0-1.919-1.138-3.427-3.07-3.427a3.2,3.2,0,0,0-3.149,3.348A3.172,3.172,0,0,0,147.448-9.854Zm1.972-3.771h-4.195a2.13,2.13,0,0,1,2.091-2.117A2.069,2.069,0,0,1,149.419-13.625Zm11.565,3.771a3.525,3.525,0,0,0,2.541-.992l-.476-.648a2.781,2.781,0,0,1-1.985.82,2.24,2.24,0,0,1-2.289-2.21h5.161v-.251c0-1.919-1.138-3.427-3.07-3.427a3.2,3.2,0,0,0-3.149,3.348A3.172,3.172,0,0,0,160.984-9.854Zm1.972-3.771h-4.195a2.13,2.13,0,0,1,2.091-2.117A2.069,2.069,0,0,1,162.956-13.625Zm14.291,3.612v-8.826h-.992v3.4a2.672,2.672,0,0,0-2.157-1.125c-1.667,0-2.845,1.31-2.845,3.361,0,2.077,1.178,3.348,2.845,3.348a2.691,2.691,0,0,0,2.157-1.112v.953Zm-2.9-.728c-1.3,0-2.064-1.045-2.064-2.461s.767-2.474,2.064-2.474a2.374,2.374,0,0,1,1.905,1.032v2.885A2.363,2.363,0,0,1,174.349-10.74Z" transform="translate(1.168 59.448)" fill="#54555b"/>
      </g>
    </g>
    <g id="_Group_" data-name="&lt;Group&gt;" transform="translate(90.488 77.089)">
      <g id="_Group_2" data-name="&lt;Group&gt;">
        <path id="_Path_" data-name="&lt;Path&gt;" d="M394.818,321.546c0,32.561-33.553,54.063-63.042,40.878A44.805,44.805,0,0,1,314.763,293.9a42.515,42.515,0,0,0,22.495,64.176,31.828,31.828,0,0,1,7.845-2.5q.756-8.506,0-12.193c-.331-1.654-.756-4.395-3.45-5.576-1.938-.851-8.27-4.49-6.427-14.65q2.174,8.365,6.474,9.5c.662.189.378-2.268-1.418-4.159q6.852-.992,9.924,13.61,3.025-14.6,9.877-13.61c-1.8,1.89-2.079,4.348-1.418,4.159q4.3-1.134,6.474-9.5c1.843,10.16-4.49,13.8-6.427,14.65-2.694,1.181-3.119,3.922-3.45,5.576q-.756,3.686,0,12.193a30.028,30.028,0,0,1,7.7,2.457A42.536,42.536,0,0,0,385.272,293.9,44.721,44.721,0,0,1,394.818,321.546Z" transform="translate(-305.231 -276.745)" fill="#1c6836"/>
        <path id="_Path_2" data-name="&lt;Path&gt;" d="M313.665,300.085a40.818,40.818,0,1,1,81.567,0,40.815,40.815,0,0,0-81.567,0Z" transform="translate(-309.663 -257.6)" fill="#1c6836"/>
      </g>
      <path id="_Path_3" data-name="&lt;Path&gt;" d="M347.848,311.159a5.749,5.749,0,0,1,2.032,4.064c-3.686.425-5.907-4.726-4.159-8.223,2.93,3.355,7.561,3.733,5.246,7.75C350.967,313.474,349.833,312.151,347.848,311.159Z" transform="translate(-326.266 -283.655)" fill="#60aa3e"/>
      <path id="_Path_4" data-name="&lt;Path&gt;" d="M357.009,293.9a4.3,4.3,0,0,1,.047,3.166c-2.363-.614-2.552-4.49.095-6.663-.142,2.646,3.686,4.631,1.04,6.616A5.138,5.138,0,0,0,357.009,293.9Z" transform="translate(-331.599 -274.899)" fill="#60aa3e"/>
      <path id="_Path_5" data-name="&lt;Path&gt;" d="M369.8,282.763c.095,1.323-.094,2.268-.567,2.694-1.748-1.181-.662-4.017,1.654-5.057-.851,1.654,1.04,4.584-1.181,5.2A3.869,3.869,0,0,0,369.8,282.763Z" transform="translate(-338.534 -269.625)" fill="#60aa3e"/>
      <path id="_Path_6" data-name="&lt;Path&gt;" d="M393.411,285.417c-3.733-.851.284-5.766-.142-8.317,3.592,2.788,3.733,6.852,1.418,8.176-.662-.662-.992-2.646-.662-4.017A6.258,6.258,0,0,0,393.411,285.417Z" transform="translate(-350.894 -267.885)" fill="#60aa3e"/>
      <path id="_Path_7" data-name="&lt;Path&gt;" d="M354.445,356.477c-2.127,3.213-5.293-2.268-7.845-2.788,3.875-2.41,7.7-1.087,8.128,1.56a5.161,5.161,0,0,1-3.97-.8A6.3,6.3,0,0,0,354.445,356.477Z" transform="translate(-327.05 -307.612)" fill="#60aa3e"/>
      <path id="_Path_8" data-name="&lt;Path&gt;" d="M409.637,290.057c-2.221-.614-.378-3.5-.992-5.057,2.363,1.04,3.261,4.017,1.465,4.915a4.93,4.93,0,0,1-.331-2.6A4.954,4.954,0,0,0,409.637,290.057Z" transform="translate(-359.7 -272.051)" fill="#60aa3e"/>
      <path id="_Path_9" data-name="&lt;Path&gt;" d="M456.6,372.07c.992-2.127,3.5.142,5.2-.236-1.418,2.174-4.49,2.6-5.151.709a5.559,5.559,0,0,1,2.646.047A4.927,4.927,0,0,0,456.6,372.07Z" transform="translate(-385.066 -317.487)" fill="#60aa3e"/>
      <path id="_Path_10" data-name="&lt;Path&gt;" d="M462.9,336.864c-.992-2.127,2.41-2.552,3.213-4.064.709,2.5-.945,5.1-2.835,4.348.189-.662.9-1.181,1.8-1.985a5.236,5.236,0,0,0-2.174,1.7Z" transform="translate(-388.294 -297.262)" fill="#60aa3e"/>
      <path id="_Path_11" data-name="&lt;Path&gt;" d="M448.979,306.359c-1.04-2.127,2.316-2.6,3.072-4.159.8,2.457-.8,5.1-2.694,4.395.189-.614.851-1.181,1.749-1.985A4.9,4.9,0,0,0,448.979,306.359Z" transform="translate(-380.942 -281.123)" fill="#60aa3e"/>
      <path id="_Path_12" data-name="&lt;Path&gt;" d="M399.509,332.409c-1.7-1.56,1.229-3.308,1.37-5.009,1.654,1.985,1.134,5.057-.851,5.1a5.178,5.178,0,0,1,.851-2.5A5.174,5.174,0,0,0,399.509,332.409Z" transform="translate(-354.676 -294.414)" fill="#60aa3e"/>
      <path id="_Path_13" data-name="&lt;Path&gt;" d="M424.962,282.576c-2.221-1.134.284-3.781-.095-5.576,2.268,1.56,2.694,4.868.614,5.529a3.889,3.889,0,0,0,.142-2.883A5.688,5.688,0,0,1,424.962,282.576Z" transform="translate(-367.889 -267.832)" fill="#60aa3e"/>
      <path id="_Path_14" data-name="&lt;Path&gt;" d="M439.146,343.809c-1.087-3.922,4.537-2.6,6.663-5.009.283,4.679-3.355,6.805-5.86,5.529.189-.851,1.229-1.8,2.883-2.41A6.44,6.44,0,0,0,439.146,343.809Z" transform="translate(-375.788 -300.426)" fill="#60aa3e"/>
      <path id="_Path_15" data-name="&lt;Path&gt;" d="M450.9,325.583c-2.5-3.214,3.214-4.159,4.206-7.183,2.032,4.206-.473,7.561-3.261,7.372-.189-.9.425-2.174,1.7-3.355A6.113,6.113,0,0,0,450.9,325.583Z" transform="translate(-381.727 -289.667)" fill="#60aa3e"/>
      <path id="_Path_16" data-name="&lt;Path&gt;" d="M437.7,374.918c2.457-3.261,4.82,2.032,8.034,2.221-3.544,3.072-7.42,1.465-7.939-1.276.8-.378,2.174-.142,3.639.8A6.217,6.217,0,0,0,437.7,374.918Z" transform="translate(-375.098 -318.917)" fill="#60aa3e"/>
      <path id="_Path_17" data-name="&lt;Path&gt;" d="M327.076,345.905c-2.127,3.5-5.009-1.512-8.176-1.418,3.214-3.4,7.23-2.174,8.034.52-.8.473-2.174.331-3.733-.473a5.994,5.994,0,0,0,3.875,1.37Z" transform="translate(-312.44 -302.333)" fill="#60aa3e"/>
      <path id="_Path_18" data-name="&lt;Path&gt;" d="M357.954,377.11c2.363,3.308-3.4,3.97-4.537,6.947-1.843-4.253.8-7.514,3.592-7.183.142.9-.52,2.127-1.89,3.261A6.237,6.237,0,0,0,357.954,377.11Z" transform="translate(-330.323 -320.495)" fill="#60aa3e"/>
      <path id="_Path_19" data-name="&lt;Path&gt;" d="M372.931,343.948c-1.087-.378-1.843-1.8-2.268-2.835a5.2,5.2,0,0,0,1.8,3.308c-3.261,1.749-2.646-3.733-4.159-5.34C370.994,338.844,374.3,340.97,372.931,343.948Z" transform="translate(-338.495 -300.565)" fill="#60aa3e"/>
      <path id="_Path_20" data-name="&lt;Path&gt;" d="M445.794,362.926c-2.741-1.418-6.9,1.654-6.994-2.316a4.775,4.775,0,0,0,3.828.614,4.73,4.73,0,0,1-3.5-1.276c2.457-2.127,6.049.047,6.663,2.977Z" transform="translate(-375.678 -311.131)" fill="#60aa3e"/>
      <path id="_Path_21" data-name="&lt;Path&gt;" d="M416.192,298.4c-2.646,4.584,1.938,11.767-3.922,11.956a7.929,7.929,0,0,0,.756-6.663,7.994,7.994,0,0,1-2.457,5.86C407.119,305.158,411.183,299.2,416.192,298.4Z" transform="translate(-360.112 -279.119)" fill="#60aa3e"/>
      <path id="_Path_22" data-name="&lt;Path&gt;" d="M466.771,353.46c-5.1-1.654-11.153,4.348-12.571-1.37a8.154,8.154,0,0,0,6.711-.614c-2.221.284-4.442.189-6.238-1.181C458.217,345.993,464.88,348.687,466.771,353.46Z" transform="translate(-383.8 -305.352)" fill="#60aa3e"/>
      <path id="_Path_23" data-name="&lt;Path&gt;" d="M424.923,325.319c-.236-2.93,1.8-5.1,4.017-6.994a9.94,9.94,0,0,0-5.86,6.049c-4.49-5.907,6.144-7.136,8.554-13.374C434.847,316.624,431.964,325.225,424.923,325.319Z" transform="translate(-366.81 -285.764)" fill="#60aa3e"/>
      <path id="_Path_24" data-name="&lt;Path&gt;" d="M332.749,321.5c4.679,4.773,14.792,1.8,13,8.979a9.9,9.9,0,0,0-7.609-3.308c2.646.992,4.962,2.363,6.191,5.009C337.806,334.827,332.135,328.022,332.749,321.5Z" transform="translate(-319.721 -291.302)" fill="#60aa3e"/>
      <path id="_Path_25" data-name="&lt;Path&gt;" d="M365,326a2.768,2.768,0,0,1,1.276,2.174c-1.843-.425-3.592-.992-2.6-4.679.9,1.938,4.206,1.607,3.072,4.253A2.5,2.5,0,0,0,365,326Z" transform="translate(-335.906 -292.357)" fill="#60aa3e"/>
      <path id="_Path_26" data-name="&lt;Path&gt;" d="M397.673,310.541c-2.93-1.37.52-4.348.189-7.041,3.261,4.206,1.654,4.678.614,7.089a4.788,4.788,0,0,1-.189-3.355A3.8,3.8,0,0,0,397.673,310.541Z" transform="translate(-353.36 -281.809)" fill="#60aa3e"/>
      <path id="_Path_27" data-name="&lt;Path&gt;" d="M409.174,338.174c-2.268-2.363,2.079-3.875,2.694-6.474,1.56,5.1-.142,4.962-2.032,6.852a4.923,4.923,0,0,1,1.087-3.214A3.711,3.711,0,0,0,409.174,338.174Z" transform="translate(-359.71 -296.682)" fill="#60aa3e"/>
      <path id="_Path_28" data-name="&lt;Path&gt;" d="M388.181,354.607c-3.214.52-2.032-3.922-3.781-5.907,5.057,1.607,3.97,2.93,4.442,5.529a5.3,5.3,0,0,1-2.032-2.694A3.914,3.914,0,0,0,388.181,354.607Z" transform="translate(-346.986 -305.648)" fill="#60aa3e"/>
      <path id="_Path_29" data-name="&lt;Path&gt;" d="M401.194,353.058c-2.5-2.079,1.56-4.111,1.843-6.758,2.221,4.82.52,4.915-1.087,6.994a4.835,4.835,0,0,1,.614-3.308A3.9,3.9,0,0,0,401.194,353.058Z" transform="translate(-355.416 -304.382)" fill="#60aa3e"/>
      <path id="_Path_30" data-name="&lt;Path&gt;" d="M385.321,332.276c-3.639-2.174,1.371-4.868,1.371-8.176,3.072,2.5,2.694,7.23-.425,8.223-.425-.992-.142-2.316.52-3.922A4.474,4.474,0,0,0,385.321,332.276Z" transform="translate(-346.773 -292.673)" fill="#60aa3e"/>
      <path id="_Path_31" data-name="&lt;Path&gt;" d="M417.212,350.109c-1.37-2.788,3.119-2.5,4.206-5.009,1.087,2.977-1.181,6.522-3.592,5.482-.047-.9.662-1.56,1.938-2.363A3.508,3.508,0,0,0,417.212,350.109Z" transform="translate(-364.156 -303.749)" fill="#60aa3e"/>
      <path id="_Path_32" data-name="&lt;Path&gt;" d="M372.968,305.99c-7.136-3.544,2.552-9.31,2.316-15.69,5.246,3.97,5.387,13.61-.473,15.784-.9-1.843-.425-4.442.756-7.561C373.535,300.744,372.448,303.2,372.968,305.99Z" transform="translate(-339.571 -274.847)" fill="#60aa3e"/>
      <path id="_Path_33" data-name="&lt;Path&gt;" d="M333.979,363.224c-1.181,1.418-4.159.945-8.081-.473,2.552,2.032,5.151,2.977,7.75,2.41-2.221,7.419-10.775-2.883-15.548-1.749C321.975,358.073,330.576,356.939,333.979,363.224Z" transform="translate(-312.019 -311.051)" fill="#60aa3e"/>
      <path id="_Path_34" data-name="&lt;Path&gt;" d="M430.416,297.454c-1.8-2.457,2.5-3.308,3.5-5.954,1.56,2.977.189,7.041-2.646,6.427-.095-.992.473-1.843,1.607-3.025A3.961,3.961,0,0,0,430.416,297.454Z" transform="translate(-371.028 -275.479)" fill="#60aa3e"/>
    </g>
  </g>
</svg>
